<svg xmlns="http://www.w3.org/2000/svg" width="370" height="350" fill="none" viewBox="0 0 370 350">
    <rect width="354.597" height="328.719" x="12.174" y="21.132" fill="url(#paint0_linear)" rx="164.36"/>
    <rect width="369.284" height="337.811" x=".284" y=".149" fill="url(#paint1_linear)" opacity=".3" rx="168.906"/>
    <path fill="#fff" d="M114.707 314.407c-.448 0-.803-.121-1.064-.364-.243-.261-.364-.606-.364-1.036v-16.94c0-.429.121-.765.364-1.008.261-.261.616-.392 1.064-.392h5.488c3.192 0 5.665.859 7.42 2.576 1.754 1.718 2.632 4.144 2.632 7.28s-.878 5.572-2.632 7.308c-1.755 1.718-4.228 2.576-7.42 2.576h-5.488zm5.32-2.408c4.853 0 7.28-2.492 7.28-7.476 0-4.965-2.427-7.448-7.28-7.448h-3.864v14.924h3.864zm15.57 2.408c-.448 0-.802-.121-1.064-.364-.242-.261-.364-.606-.364-1.036v-16.94c0-.429.122-.765.364-1.008.262-.261.616-.392 1.064-.392h10.304c.43 0 .756.103.98.308.243.206.364.495.364.868 0 .374-.121.663-.364.868-.224.187-.55.28-.98.28h-8.904v6.216h8.344c.43 0 .756.103.98.308.243.206.364.495.364.868 0 .374-.121.663-.364.868-.224.206-.55.308-.98.308h-8.344v6.524h8.904c.896 0 1.344.383 1.344 1.148 0 .374-.121.663-.364.868-.224.206-.55.308-.98.308h-10.304zm21.202.224c-1.419 0-2.772-.196-4.06-.588-1.27-.392-2.287-.933-3.052-1.624-.355-.298-.532-.681-.532-1.148 0-.336.093-.616.28-.84.186-.242.41-.364.672-.364.261 0 .578.122.952.364 1.661 1.232 3.556 1.848 5.684 1.848 1.493 0 2.641-.28 3.444-.84.802-.56 1.204-1.362 1.204-2.408 0-.821-.374-1.437-1.12-1.848-.747-.41-1.942-.802-3.584-1.176-1.568-.336-2.856-.718-3.864-1.148-1.008-.429-1.802-1.008-2.38-1.736-.56-.746-.84-1.689-.84-2.828 0-1.138.308-2.146.924-3.024.634-.896 1.512-1.586 2.632-2.072 1.12-.504 2.398-.756 3.836-.756 1.325 0 2.548.187 3.668.56 1.12.374 2.072.924 2.856 1.652.373.318.56.7.56 1.148 0 .318-.103.598-.308.84-.187.243-.411.364-.672.364-.243 0-.551-.121-.924-.364-.859-.653-1.671-1.12-2.436-1.4-.747-.298-1.652-.448-2.716-.448-1.438 0-2.558.299-3.36.896-.803.579-1.204 1.391-1.204 2.436 0 .896.354 1.578 1.064 2.044.709.448 1.848.859 3.416 1.232 1.642.374 2.968.766 3.976 1.176 1.026.392 1.838.943 2.436 1.652.616.691.924 1.587.924 2.688 0 1.12-.318 2.119-.952 2.996-.616.859-1.494 1.531-2.632 2.016-1.12.467-2.418.7-3.892.7zm12.458-.084c-.429 0-.774-.13-1.036-.392-.261-.261-.392-.616-.392-1.064v-17.108c0-.429.131-.774.392-1.036.262-.28.607-.42 1.036-.42.448 0 .803.131 1.064.392.262.262.392.616.392 1.064v17.108c0 .448-.13.803-.392 1.064-.242.262-.597.392-1.064.392zm20.877-10.612c.355 0 .635.103.84.308.224.206.336.486.336.84v6.552c0 .635-.093 1.092-.28 1.372-.168.28-.513.504-1.036.672-.746.299-1.633.532-2.66.7-1.026.168-2.044.252-3.052.252-1.997 0-3.724-.401-5.18-1.204-1.456-.802-2.566-1.96-3.332-3.472-.765-1.512-1.148-3.322-1.148-5.432 0-2.072.383-3.864 1.148-5.376.766-1.512 1.858-2.669 3.276-3.472 1.438-.821 3.118-1.232 5.04-1.232 1.307 0 2.511.196 3.612.588 1.12.374 2.072.924 2.856 1.652.374.299.56.672.56 1.12 0 .336-.093.626-.28.868-.186.224-.41.336-.672.336-.168 0-.317-.028-.448-.084-.13-.056-.298-.149-.504-.28-.914-.672-1.745-1.138-2.492-1.4-.746-.28-1.605-.42-2.576-.42-2.128 0-3.752.663-4.872 1.988-1.12 1.307-1.68 3.211-1.68 5.712 0 2.558.57 4.499 1.708 5.824 1.158 1.307 2.847 1.96 5.068 1.96 1.494 0 2.931-.224 4.312-.672v-5.516h-3.668c-.373 0-.672-.093-.896-.28-.205-.205-.308-.476-.308-.812 0-.336.103-.597.308-.784.224-.205.523-.308.896-.308h5.124zm20.371-9.408c.411 0 .738.14.98.42.262.262.392.607.392 1.036v17.108c0 .43-.13.784-.392 1.064-.261.262-.597.392-1.008.392-.485 0-.858-.186-1.12-.56l-10.976-14.476v13.58c0 .43-.13.784-.392 1.064-.242.262-.569.392-.98.392-.41 0-.737-.13-.98-.392-.242-.261-.364-.616-.364-1.064v-17.108c0-.429.131-.774.392-1.036.262-.28.598-.42 1.008-.42.486 0 .859.187 1.12.56l10.976 14.504v-13.608c0-.429.122-.774.364-1.036.243-.28.57-.42.98-.42zm7.397 19.88c-.448 0-.803-.121-1.064-.364-.243-.261-.364-.606-.364-1.036v-16.94c0-.429.121-.765.364-1.008.261-.261.616-.392 1.064-.392h10.304c.429 0 .756.103.98.308.243.206.364.495.364.868 0 .374-.121.663-.364.868-.224.187-.551.28-.98.28h-8.904v6.216h8.344c.429 0 .756.103.98.308.243.206.364.495.364.868 0 .374-.121.663-.364.868-.224.206-.551.308-.98.308h-8.344v6.524h8.904c.896 0 1.344.383 1.344 1.148 0 .374-.121.663-.364.868-.224.206-.551.308-.98.308h-10.304zm30.351-1.792c.168.243.252.504.252.784 0 .336-.14.626-.42.868-.261.224-.569.336-.924.336-.523 0-.943-.233-1.26-.7l-3.752-5.824c-.429-.672-.887-1.138-1.372-1.4-.485-.28-1.12-.42-1.904-.42h-3.164v6.832c0 .448-.131.803-.392 1.064-.243.262-.588.392-1.036.392-.429 0-.775-.13-1.036-.392-.261-.261-.392-.616-.392-1.064v-17.024c0-.429.121-.765.364-1.008.261-.261.616-.392 1.064-.392h6.972c2.184 0 3.845.486 4.984 1.456 1.157.971 1.736 2.39 1.736 4.256 0 1.55-.439 2.81-1.316 3.78-.877.952-2.128 1.559-3.752 1.82.485.131.924.364 1.316.7.392.336.775.803 1.148 1.4l2.884 4.536zm-7.336-8.68c1.456 0 2.529-.28 3.22-.84.709-.578 1.064-1.465 1.064-2.66 0-1.194-.345-2.062-1.036-2.604-.691-.56-1.773-.84-3.248-.84h-5.236v6.944h5.236zm17.737 10.696c-1.418 0-2.772-.196-4.06-.588-1.269-.392-2.286-.933-3.052-1.624-.354-.298-.532-.681-.532-1.148 0-.336.094-.616.28-.84.187-.242.411-.364.672-.364.262 0 .579.122.952.364 1.662 1.232 3.556 1.848 5.684 1.848 1.494 0 2.642-.28 3.444-.84.803-.56 1.204-1.362 1.204-2.408 0-.821-.373-1.437-1.12-1.848-.746-.41-1.941-.802-3.584-1.176-1.568-.336-2.856-.718-3.864-1.148-1.008-.429-1.801-1.008-2.38-1.736-.56-.746-.84-1.689-.84-2.828 0-1.138.308-2.146.924-3.024.635-.896 1.512-1.586 2.632-2.072 1.12-.504 2.399-.756 3.836-.756 1.326 0 2.548.187 3.668.56 1.12.374 2.072.924 2.856 1.652.374.318.56.7.56 1.148 0 .318-.102.598-.308.84-.186.243-.41.364-.672.364-.242 0-.55-.121-.924-.364-.858-.653-1.67-1.12-2.436-1.4-.746-.298-1.652-.448-2.716-.448-1.437 0-2.557.299-3.36.896-.802.579-1.204 1.391-1.204 2.436 0 .896.355 1.578 1.064 2.044.71.448 1.848.859 3.416 1.232 1.643.374 2.968.766 3.976 1.176 1.027.392 1.839.943 2.436 1.652.616.691.924 1.587.924 2.688 0 1.12-.317 2.119-.952 2.996-.616.859-1.493 1.531-2.632 2.016-1.12.467-2.417.7-3.892.7z" opacity=".7"/>
    <g style="mix-blend-mode:luminosity" clip-path="url(#clip0)">
        <path fill="#655D8E" d="M240.685 178.236c0 4.165-.066 8.178.012 12.197.206 10.415-.332 20.751-2.281 31.026-1.737 9.154-6.9 15.428-14.973 19.666-6.373 3.346-13.278 4.595-20.305 5.316-1.846.188-2.76.782-3.571 2.467-3.461 7.214-8.866 12.313-16.564 14.938-3.922 1.339-7.269.666-10.434-1.837-4.466-3.535-7.571-8.069-9.677-13.295-.624-1.539-1.422-2.03-3.063-2.224-7.486-.898-14.948-1.958-22.404-3.062-4.576-.673-7.136-3.431-8.461-7.893-3.432-11.524-2.821-23.054-1.09-34.754 1.429-9.663 2.167-19.435 3.16-29.159.048-.479-.224-1.176-.587-1.491-4.933-4.268-5.726-10.203-6.307-16.119-.224-2.261.23-4.638.69-6.899.993-4.886 3.892-7.875 9.562-8.111-1.022-2.286-1.845-4.171-2.717-6.038-3.371-7.238-6.1-14.713-3.903-22.751 1.113-4.074 3.183-7.99 5.404-11.615 1.707-2.789 4.146-5.22 6.585-7.45 5.568-5.099 12.322-5.48 19.251-3.935 1.792.4 3.329 1.952 5.036 3.007 4.248-8.069 11.571-11.197 20.456-11.64 19.724-.982 36.215 5.644 50.42 19.593 11.65 11.446 14.749 24.807 12.413 40.174-.279 1.825-1.296 3.54-2.058 5.541.896.23 2.094.327 3.068.837 1.374.721 3.178 1.467 3.765 2.697 2.971 6.214 4.375 12.864 2.802 19.666-1.592 6.911-6.27 10.396-14.229 11.148zm-76.335-75.328c.866 6.311-2.184 10.075-5.713 13.506-1.725 1.673-3.673 3.225-5.761 4.389-6.446 3.583-10.065 8.875-11.136 16.217-2.112 14.446-4.606 28.837-6.682 43.289-1.119 7.778-1.622 15.647-2.542 23.461-1.21 10.305-1.537 20.496 2.197 30.468.666 1.782 1.465 2.649 3.274 2.922 4.176.637 8.322 1.497 12.504 2.061 3.202.431 6.439.546 9.562.794-.46-4.534-1.016-8.529-1.24-12.542-.448-8.124 3.001-13.355 11.051-14.258 8.237-.928 16.716-.952 24.965-.122 8.721.879 10.3 3.31 10.185 12.161-.066 4.959-.786 9.905-1.271 15.555 5.06-1.406 10.271-2.467 15.179-4.322 7.329-2.758 12.431-8.014 13.805-15.931 1.392-8.02 2.554-16.119 3.171-24.237.902-11.869 1.204-23.787 1.798-35.681.187-3.844.478-7.681.72-11.518-.267-.134-.539-.261-.805-.394-1.386 1.23-2.712 2.54-4.176 3.667-1.198.922-2.603 2.298-3.831 2.213-.92-.061-2.136-1.995-2.506-3.292-2.989-10.706-10.046-17.768-19.893-22.151-7.057-3.14-14.301-5.886-21.503-8.699-8.709-3.395-16.286-8.16-21.352-17.556zm76.523 45.333v24.284c5.229-.242 8.836-2.655 9.508-7.401.532-3.789.181-7.821-.448-11.634-.878-5.359-3.202-6.541-9.06-5.249zm-10.313-9.882c.248-.066.502-.139.751-.206-.218-.861-.182-1.922-.684-2.552-6.379-7.972-13.018-15.513-23.162-19.096-10.851-3.831-21.969-7.238-31.186-14.64-.242-.194-.696-.121-1.531-.248.52.83.702 1.406 1.095 1.691 8.019 5.88 16.147 11.433 25.921 14.282 7.65 2.231 14.846 5.65 20.408 11.737 2.766 3.037 5.586 6.025 8.388 9.032zm-98.219 25.304c1.029-7.402 1.955-14.089 2.893-20.848-4.34.218-5.677 1.297-6.379 4.983-1.053 5.498.436 10.457 3.486 15.865zm21.249-69.77c-.279-.133-.557-.272-.842-.406-3.171 2.074-6.306 4.207-9.526 6.208-3.982 2.473-6.384 6.068-7.462 10.524-.55 2.267-.665 4.643-.98 6.965.308.043.617.079.926.121.145-.624.351-1.242.429-1.873.805-6.377 3.626-11.366 9.502-14.44 2.118-1.11 4.14-2.485 5.998-3.989.896-.733 1.319-2.055 1.955-3.11z"/>
        <path fill="#fff" d="M164.349 102.907c5.072 9.402 12.643 14.161 21.352 17.562 7.202 2.813 14.44 5.553 21.503 8.699 9.853 4.383 16.904 11.445 19.893 22.151.363 1.303 1.58 3.231 2.506 3.292 1.228.079 2.632-1.292 3.831-2.213 1.464-1.128 2.79-2.437 4.176-3.668.266.134.538.261.805.394-.242 3.838-.527 7.675-.721 11.519-.593 11.893-.895 23.812-1.797 35.681-.617 8.118-1.779 16.21-3.171 24.237-1.374 7.917-6.476 13.167-13.805 15.931-4.914 1.849-10.125 2.91-15.179 4.322.484-5.656 1.205-10.602 1.271-15.555.115-8.845-1.464-11.276-10.185-12.161-8.249-.83-16.728-.806-24.965.121-8.05.904-11.499 6.135-11.051 14.259.223 4.013.78 8.008 1.24 12.542-3.123-.248-6.367-.364-9.562-.794-4.182-.564-8.328-1.425-12.504-2.061-1.809-.273-2.602-1.14-3.274-2.922-3.74-9.972-3.407-20.163-2.197-30.468.92-7.814 1.422-15.677 2.542-23.461 2.076-14.452 4.569-28.843 6.682-43.29 1.071-7.341 4.69-12.633 11.135-16.216 2.094-1.164 4.043-2.71 5.762-4.389 3.528-3.437 6.579-7.202 5.713-13.512zm31.392 45.114c2.772.376 5.647.709 8.504 1.17 4.067.661 8.097 1.564 12.182 2.019 1.017.115 2.173-1.097 3.269-1.698-.648-.969-1.181-2.679-1.955-2.8-7.735-1.207-15.512-2.158-23.277-3.165-2.578-.333-3.806 1.019-3.831 3.462-.133 11.3-.211 22.599-.302 33.893-.018 1.995 0 3.989 0 6.293-2.445-.255-4.63-.425-6.797-.728-4.478-.63-5.332.128-5.053 3.807-3.807 2.195-7.856 3.674-10.706 6.402-3.208 3.061-6.385 5.019-10.797 5.092-.835.012-2.197.667-2.367 1.285-.236.873.097 2.425.757 2.91 1.664 1.225 3.559 2.322 5.519 2.922 5.266 1.613 10.343.358 15.294-1.594 4.049-1.595 8.134-1.777 11.923.527 5.543 3.365 11.644 3.977 17.781 3.395 3.704-.352 7.317-1.885 10.887-3.122.69-.243 1.483-1.625 1.368-2.352-.103-.667-1.307-1.261-2.13-1.679-.599-.31-1.362-.346-2.064-.413-3.637-.369-6.681-1.679-9.175-4.577-1.319-1.527-3.353-2.521-5.211-3.473-2.009-1.025-4.182-1.722-6.415-2.607 3.353-2.497 3.528-2.637 3.413-6.686-.175-5.85-.659-11.688-.78-17.538-.146-6.844-.037-13.682-.037-20.745zm-22.616-.218c.145.291.29.582.435.879.612-.734 1.538-1.4 1.707-2.225.091-.442-1.071-1.582-1.761-1.673-7.928-1.079-15.869-2.067-23.821-2.958-1.749-.194-3.68.212-3.819 2.443-.151 2.334 1.907 2.703 3.565 2.776 7.892.334 15.796.522 23.694.758zm-15.215 9.614c.2 3.42 1.821 4.693 3.764 4.408 1.077-.158 2.536-2.007 2.693-3.238.279-2.152-1.367-3.734-3.504-3.437-1.228.176-2.275 1.71-2.953 2.267zm52.296 5.42c1.259-2.116 2.651-3.413 2.463-4.419-.194-1.061-1.834-2.425-2.965-2.552-.799-.091-2.615 1.764-2.518 2.582.145 1.261 1.537 2.376 3.02 4.389zM240.872 148.239c5.858-1.285 8.182-.103 9.06 5.25.629 3.813.98 7.845.448 11.633-.672 4.747-4.285 7.16-9.508 7.402v-24.285zM230.559 138.358c-2.802-3.013-5.622-6.001-8.394-9.032-5.562-6.087-12.758-9.506-20.408-11.737-9.768-2.849-17.902-8.402-25.921-14.282-.393-.285-.569-.867-1.095-1.692.835.122 1.289.055 1.531.249 9.211 7.402 20.335 10.809 31.186 14.64 10.144 3.583 16.777 11.118 23.162 19.096.502.63.472 1.691.684 2.552-.249.067-.497.139-.745.206zM132.34 163.661c-3.05-5.407-4.539-10.366-3.486-15.87.702-3.68 2.039-4.759 6.379-4.983-.938 6.765-1.864 13.451-2.893 20.853zM153.589 93.892c-.636 1.055-1.059 2.377-1.955 3.104-1.858 1.51-3.88 2.88-5.998 3.989-5.876 3.073-8.697 8.063-9.502 14.44-.078.63-.284 1.249-.429 1.873-.309-.042-.618-.079-.926-.121.315-2.328.43-4.698.98-6.966 1.084-4.455 3.48-8.05 7.462-10.523 3.22-2 6.355-4.135 9.526-6.208.279.14.563.279.842.412z"/>
        <path fill="#655D8E" d="M195.741 148.021c0 7.069-.109 13.901.031 20.733.121 5.85.605 11.687.78 17.537.121 4.056-.06 4.189-3.413 6.687 2.233.891 4.406 1.582 6.415 2.607 1.858.951 3.898 1.946 5.211 3.473 2.493 2.898 5.538 4.207 9.175 4.577.702.073 1.465.103 2.064.412.823.425 2.027 1.019 2.13 1.68.115.721-.678 2.109-1.368 2.352-3.57 1.236-7.184 2.776-10.887 3.122-6.137.582-12.238-.031-17.781-3.395-3.789-2.298-7.868-2.122-11.923-.527-4.951 1.952-10.028 3.206-15.294 1.594-1.967-.6-3.855-1.697-5.519-2.922-.66-.485-.993-2.037-.757-2.91.164-.618 1.525-1.273 2.367-1.285 4.412-.073 7.595-2.031 10.797-5.092 2.856-2.728 6.899-4.207 10.706-6.402-.279-3.68.575-4.437 5.053-3.807 2.167.303 4.346.467 6.797.728 0-2.304-.012-4.298 0-6.293.09-11.3.175-22.6.302-33.893.031-2.443 1.259-3.795 3.831-3.462 7.765 1 15.542 1.958 23.277 3.165.78.121 1.307 1.824 1.954 2.8-1.095.6-2.257 1.807-3.268 1.698-4.085-.455-8.122-1.364-12.183-2.019-2.85-.455-5.725-.782-8.497-1.158zM173.125 147.803c-7.898-.236-15.802-.418-23.7-.758-1.658-.072-3.716-.442-3.565-2.776.139-2.231 2.076-2.643 3.819-2.443 7.952.885 15.893 1.873 23.821 2.958.696.097 1.852 1.231 1.761 1.673-.163.825-1.095 1.492-1.706 2.225-.14-.297-.285-.588-.43-.879zM157.91 157.417c.678-.557 1.725-2.091 2.959-2.261 2.137-.297 3.783 1.285 3.505 3.437-.164 1.231-1.616 3.08-2.694 3.238-1.948.279-3.57-.995-3.77-4.414z"/>
        <path fill="#655D8E" d="M210.206 162.837c-1.483-2.019-2.875-3.134-3.02-4.389-.097-.818 1.725-2.673 2.517-2.582 1.132.127 2.772 1.491 2.966 2.552.188 1.006-1.204 2.309-2.463 4.419z"/>
    </g>
    <defs>
        <linearGradient id="paint0_linear" x1="286.69" x2="76.133" y1="349.851" y2="10.732" gradientUnits="userSpaceOnUse">
            <stop stop-color="#6D678E"/>
            <stop offset="1" stop-color="#F6B5CC"/>
        </linearGradient>
        <linearGradient id="paint1_linear" x1="286.17" x2="71.078" y1="337.961" y2="-13.102" gradientUnits="userSpaceOnUse">
            <stop stop-color="#6D678E"/>
            <stop offset="1" stop-color="#F6B5CC"/>
        </linearGradient>
        <clipPath id="clip0">
            <path fill="#fff" d="M0 0H131.488V186.041H0z" transform="translate(124.079 78.482)"/>
        </clipPath>
    </defs>
</svg>
