<svg xmlns="http://www.w3.org/2000/svg" width="156" height="265" fill="none" viewBox="0 0 156 265">
    <g clip-path="url(#clip0)">
        <path fill="#655D8E" d="M137.964 75.019c7.555 1.145 11.255 4.689 12 12.104.505 5.01.568 10.082.471 15.121-.092 4.838-2.553 7.816-7.274 9.03-2.535.652-5.22.738-8.019 1.11-.608 8.337-.987 17-1.922 25.606-1.755 16.243-2.564 32.67-8.128 48.284-.321.899-.728 1.764-1.01 2.674-1.996 6.384-6.464 9.866-12.918 11.097-10.91 2.078-21.9 3.235-33.012 2.628-10.772-.59-21.534-1.34-32.295-2.119-2.558-.183-5.1-.681-7.629-1.156-6.086-1.146-9.614-4.988-10.434-10.954-1.687-12.247-3.631-24.494-4.474-36.81-1.09-15.958-1.21-31.978-1.75-48.182-.746-.177-1.64-.429-2.553-.59-8.805-1.563-12.59-6.183-11.834-15.04.282-3.282 1.085-6.58 2.134-9.712 1.767-5.267 5.02-7.369 10.567-7.437.952-.012 1.904 0 3.034 0 0-2.262.075-4.41-.017-6.556-.258-6.092-.35-12.207-.93-18.27-1.02-10.736 3.827-19.577 8.628-28.498 1.83-3.39 4.572-5.731 7.887-7.65 5.054-2.913 10.21-3.257 15.695-1.54 3.808 1.197 7.176 1.174 10.847-1.557C70.208 2.75 76.088.362 82.976.058c15.345-.676 28.246 5.382 40.59 13.324 11.203 7.208 15.746 17.972 16.653 30.901.636 9.104.321 18.082-1.262 27.031-.195 1.197-.62 2.365-.993 3.705zm-15.08-53.553c2.328 3.95 4.663 7.902 6.992 11.852l.86-.55c-2.552-3.83-5.099-7.66-7.652-11.49-2.501-4.507-6.809-6.476-11.415-7.88-6.08-1.854-12.224-3.51-18.333-5.273-3.47-1.002-6.93-2.044-10.394-3.069-.063.224-.132.453-.195.676 7.876 2.336 15.694 4.872 23.639 6.951 6.258 1.632 12.19 3.607 16.498 8.783zm-62.36-5.365l-.515-.034c-.637 2.674-1.434 5.325-1.876 8.027-.815 4.976-3.694 8.205-8.094 10.335-1.973.956-4.113 1.74-5.794 3.092-2.254 1.81-4.973 3.733-6.023 6.23-3.252 7.746-6.47 15.493-6.166 24.328.499 14.509 1.509 28.955 4.445 43.16 2.111 10.226 3.872 10.902 12.242 12.07 6.418.899 12.912 1.592 19.382 1.672 11.547.149 23.1-.149 34.647-.424 8.49-.2 13.113-4.014 15.328-12.218.126-.459.223-.922.315-1.392.511-2.508.975-5.033 1.532-7.529 1.193-5.365 3.16-10.678 3.493-16.095.516-8.52.08-17.108-.224-25.657-.149-4.265-.464-8.623-1.468-12.75-2.748-11.292-6.344-16.038-17.806-17.298-4.33-.475-8.753-.103-13.135-.172-5.892-.086-11.823.16-17.662-.452-5.851-.613-10.085-3.808-11.387-9.986-.344-1.649-.814-3.27-1.233-4.907zm73.425 63.252c.384 5.846.751 11.4 1.136 17.188 1.864-.44 3.401-.807 5.082-1.202-.281-1.323-.522-2.422-.74-3.527-.247-1.214-.717-2.445-.631-3.636.069-.933.832-1.81 1.291-2.714.889.641 2.231 1.1 2.569 1.958.769 1.924 1.108 4.031 1.492 6.081.74 3.95-.293 5.37-4.308 6.12-4.956.928-4.956.928-4.721 6.093.011.263.172.521.379 1.093 1.147 0 2.369.086 3.573-.017 4.744-.4 6.121-1.477 6.522-6.201.362-4.26.27-8.57.075-12.848-.08-1.718-.688-3.55-1.543-5.061-2.226-3.906-6.052-3.562-10.176-3.327zM21.272 91.634c.355-.143.711-.28 1.072-.423.42-5.554.832-11.108 1.262-16.794-1.078-.051-1.927-.12-2.776-.12-5.122.006-6.832 1.214-7.98 6.27-.67 2.948-.848 6.012-1.244 9.018-.459 3.51 1.262 5.937 4.153 7.46 1.841.974 3.975 1.386 6.195 2.124v-3.006c-5.54-1.288-7.33-3.675-7.004-9.287.138-2.376.299-4.758.488-7.128.132-1.638.987-3 2.667-2.456.843.274 1.658 1.906 1.738 2.977.184 2.456-.292 4.958-.109 7.415.104 1.345 1.004 2.633 1.538 3.95zm32.73 47.317c4.286 2.64 29.078 3.751 32.623 1.501-3.39 0-6.184.183-8.949-.035-6.82-.549-13.618-1.305-20.432-1.918-.838-.08-1.698.223-3.241.452zm-2.5-122.546c-.941 6.435-5.736 9.006-10.813 11.56-1.732.87-3.287 2.737-4.176 4.517-2.157 4.323-3.952 8.83-5.72 13.33-.705 1.798-.957 3.767-1.416 5.663.706-.098 1.033-.327 1.142-.636 1.675-4.62 3.395-9.23 4.944-13.896 1.635-4.896 4.646-8.285 9.494-10.318 4.273-1.792 6.39-5.416 6.545-10.22zm21.93-5.663c1.657 1.763 7.933 4.397 12.665 4.924 7.928.876 15.482 2.892 22.452 6.882 2.788 1.592 5.65 3.052 8.478 4.575-.029-.51-.178-.773-.407-.927-1.113-.728-2.226-1.466-3.379-2.13-8.226-4.73-16.859-8.056-26.438-9.202-4.733-.566-9.259-2.8-13.372-4.122zM29.68 27.283c-6.425 11.578-6.774 23.516-1.847 35.162-.746-5.422-2.065-11.4-2.249-17.412-.195-6.144 1.366-12.161 4.096-17.75zm101.612 11.469c.447 3.739 1.078 7.46 1.302 11.21.229 3.883.178 7.8.046 11.687-.126 3.647-.516 7.289-.786 10.936 2.289-9.218 1.824-28.296-.562-33.833zM43.029 187.03c.258.063.522.132.78.195v-12.333c-.258.005-.522.011-.78.011v12.127zM83.487 24.398c-6.11-2.004-14.082 0-17.06-8.972-.046 6.12 7.4 9.82 17.06 8.972zm34.59 157.708c.418.092.837.183 1.25.275.849-4.34 1.692-8.686 2.541-13.026l-1.216-.241c-.86 4.329-1.715 8.663-2.575 12.992zm-4.222-51.159c-.425-.029-.849-.057-1.279-.08-.19 4.3-.385 8.594-.574 12.888.39.018.774.04 1.164.058l.689-12.866zm-.184 38.436l1.176-.017V153.97c-.149-.011-.304-.023-.453-.029l-.723 15.442zm-82.487 3.373c-.448.051-.9.109-1.348.16.482 3.682.964 7.369 1.44 11.051l1.158-.138c-.413-3.687-.831-7.38-1.25-11.073zm91.7-18.065l.871.086c.528-5.399 1.05-10.804 1.578-16.203-.27-.029-.539-.052-.809-.081-.551 5.4-1.095 10.799-1.64 16.198zm-33.035 12.62c-.436-.046-.872-.086-1.303-.132-.378 3.642-.751 7.289-1.13 10.93.39.046.775.092 1.165.132.419-3.641.843-7.283 1.267-10.93zm-45.804-5.096h.613v-12.116h-.613v12.116zm62.553-16.324l-.636-.017v11.989c.212-.005.424-.017.636-.022v-11.95zm-13.67 49.098c.139-.012.27-.029.408-.04v-11.973l-.407.035v11.978zm11.967-13.284c.407.023.814.04 1.216.063.172-3.493.35-6.985.522-10.478-.373-.023-.74-.04-1.113-.063-.207 3.499-.413 6.986-.625 10.478zm-22.314-22.559l1.112.206 1.326-10.621c-.368-.046-.735-.097-1.102-.143-.447 3.521-.895 7.037-1.336 10.558zM39.84 136.381c-.373-.018-.74-.035-1.113-.058-.218 3.338-.442 6.671-.66 10.009.339.017.672.04 1.01.057.252-3.332.51-6.67.763-10.008zm-4.566 19.215l-.7-.017v10.386c.235 0 .47 0 .7-.005v-10.364zm-5.398-3.819l.671.034c.16-2.925.316-5.851.476-8.783l-1.147-.051v8.8zm37.016 38.814c.31.012.614.018.924.029l.67-10.558c-.326-.017-.647-.029-.974-.046l-.62 10.575zm-12.333-10.06c-.344.063-.688.132-1.027.195.62 3.184 1.24 6.367 1.859 9.556.35-.068.706-.137 1.055-.2-.625-3.184-1.256-6.367-1.887-9.551zm75.047-129.452c.201-.086.402-.171.609-.257l-3.546-13.8c-.223.058-.447.115-.671.178 1.205 4.627 2.404 9.253 3.608 13.88zm-7.927 70.753l-.66.017v12.865h.66v-12.882zm-13.629 73.283c.338.068.677.137 1.015.2.625-2.943 1.25-5.892 1.881-8.835-.332-.068-.671-.131-1.003-.2l-1.893 8.835zm-27.683-9.986c-.196.006-.396.017-.591.023v9.052c.195-.005.395-.017.59-.023v-9.052zm18.958-52.041l-.637-.017v11.331l.637-.017v-11.297zm27.614-16.822l1.176.035v-10.444c-.161-.011-.315-.017-.476-.029-.23 3.482-.465 6.957-.7 10.438zm-102.312-.04l1.004.052c.281-3.149.568-6.293.85-9.442-.328-.023-.655-.046-.982-.063-.292 3.149-.585 6.304-.872 9.453zm32.588 32.024c-.195.006-.384.006-.58.011v8.32c.196.006.385.017.58.023v-8.354zm33.104-9.728c.27-.063.545-.132.814-.195l-2.202-9.103c-.396.097-.792.2-1.188.297.86 3.001 1.716 6.001 2.576 9.001zM53.48 128.084l-1.113-.24-1.721 8.159c.31.074.625.149.935.217.631-2.708 1.268-5.422 1.899-8.136zm23.306 41.832c-.39-.029-.774-.063-1.164-.092-.362 2.606-.723 5.211-1.09 7.816.361.051.722.109 1.09.16.39-2.628.774-5.256 1.164-7.884zm-14.163 2.748c.35-.005.7-.011 1.05-.011v-8.4c-.224-.011-.453-.028-.677-.04-.126 2.817-.252 5.634-.373 8.451zm37.533-148.06c-.104.195-.207.39-.31.578 4.113 1.197 8.226 2.388 12.333 3.584.057-.206.114-.406.178-.612-4.067-1.186-8.134-2.365-12.201-3.55zM67.718 158.43c.338.08.677.155 1.015.235.58-2.886 1.165-5.777 1.744-8.663-.287-.057-.568-.12-.855-.177-.63 2.868-1.267 5.737-1.904 8.605zm-16.176 13.902c.338.029.677.063 1.015.092.172-2.491.339-4.987.51-7.478-.32-.029-.648-.063-.969-.091-.183 2.49-.373 4.987-.556 7.477zm-21.236-39.599c.27.018.545.029.815.046.212-2.576.43-5.147.642-7.724-.32-.017-.642-.034-.963-.057-.167 2.577-.327 5.159-.494 7.735zm10.796-5.725h-.545v6.813h.545v-6.813z"/>
        <path fill="#fff" d="M60.526 16.1c.413 1.638.889 3.259 1.233 4.908 1.296 6.178 5.535 9.373 11.386 9.985 5.84.613 11.771.367 17.662.453 4.383.063 8.805-.31 13.136.171 11.461 1.26 15.058 6 17.806 17.298 1.003 4.128 1.313 8.48 1.468 12.75.304 8.55.74 17.138.224 25.658-.327 5.416-2.295 10.73-3.494 16.094-.556 2.503-1.021 5.022-1.531 7.53-.092.464-.195.933-.316 1.391-2.214 8.205-6.843 12.018-15.327 12.219-11.547.269-23.1.567-34.647.423-6.47-.08-12.964-.773-19.383-1.672-8.369-1.168-10.124-1.843-12.24-12.069-2.938-14.206-3.947-28.652-4.446-43.16-.304-8.84 2.914-16.588 6.166-24.329 1.044-2.49 3.763-4.42 6.023-6.23 1.675-1.345 3.815-2.135 5.794-3.091 4.405-2.13 7.279-5.36 8.094-10.335.441-2.708 1.239-5.354 1.875-8.028l.517.035zM80.35 118.036c-4.692 0-9.258.023-13.824-.011-1.99-.017-3.07.933-3.178 2.863-.115 2.084 1.239 2.444 2.994 2.467 4.968.052 9.93.252 14.897.304 5.335.057 5.874-.63 6.224-6.098.832-13.02 1.87-26.035 2.616-39.06.16-2.79 1.308-3.305 3.711-3.184 7.916.395 15.838.681 23.765.973 1.956.075 4.199.092 4.182-2.61-.017-2.56-2.185-2.36-4.038-2.428-3.339-.126-6.672-.31-10.004-.55-4.945-.355-9.884-.973-14.834-1.11-4.475-.121-7.033 1.923-7.624 5.73-.889 5.743-1.715 11.498-2.357 17.27-.935 8.336-1.67 16.678-2.53 25.444zM50.705 73.14v.286c4.67 0 9.345-.011 14.014.006 1.612.006 2.965-.475 2.965-2.29 0-1.787-1.25-2.227-2.925-2.296-6.757-.27-13.509-.699-20.272-.99-2.828-.121-5.696-.281-8.467.108-.791.115-1.692 2.055-1.812 3.235-.058.555 1.594 1.815 2.506 1.85 4.658.194 9.328.091 13.991.091zm52.871 14.875c1.853.017 3.769-1.924 3.855-3.91.08-1.827-1.744-3.648-3.671-3.67-2.094-.023-4.136 1.677-4.217 3.515-.08 1.97 1.98 4.048 4.033 4.065zm-48.821-3.939c.04-2.187-1.337-4.07-3.396-3.956-2.128.114-3.55 1.173-3.59 3.532-.047 2.594 1.508 4.472 3.785 4.34 2.128-.12 3.23-1.35 3.2-3.916zM133.949 79.352c4.125-.235 7.951-.578 10.171 3.332.855 1.506 1.468 3.344 1.543 5.062.195 4.277.287 8.589-.075 12.848-.401 4.724-1.778 5.801-6.522 6.201-1.204.103-2.426.018-3.573.018-.207-.573-.368-.831-.379-1.094-.241-5.165-.235-5.165 4.721-6.092 4.015-.75 5.048-2.164 4.308-6.121-.385-2.055-.723-4.162-1.492-6.08-.344-.86-1.68-1.318-2.569-1.959-.459.905-1.222 1.78-1.291 2.714-.086 1.191.39 2.422.631 3.636.224 1.105.464 2.204.74 3.527-1.675.395-3.212.762-5.082 1.202-.379-5.794-.746-11.348-1.131-17.194zM21.273 91.634c-.54-1.317-1.435-2.6-1.538-3.951-.183-2.456.287-4.958.11-7.415-.081-1.07-.896-2.702-1.739-2.977-1.68-.544-2.535.824-2.667 2.456-.19 2.376-.35 4.753-.488 7.129-.333 5.61 1.463 7.998 7.004 9.287v3.006c-2.22-.739-4.354-1.151-6.195-2.124-2.891-1.523-4.612-3.957-4.153-7.461.396-3.012.58-6.07 1.245-9.018 1.147-5.056 2.85-6.264 7.979-6.27.849 0 1.698.075 2.776.12-.424 5.692-.843 11.246-1.262 16.794-.355.143-.711.28-1.072.424zM54.003 138.951c1.544-.229 2.41-.533 3.236-.458 6.814.613 13.617 1.368 20.432 1.918 2.765.223 5.559.034 8.949.034-3.54 2.256-28.337 1.151-32.617-1.494zM51.502 16.404c-.154 4.804-2.271 8.428-6.544 10.22-4.853 2.033-7.865 5.423-9.488 10.318-1.55 4.667-3.276 9.27-4.945 13.897-.115.309-.436.544-1.141.635.458-1.89.71-3.865 1.416-5.663 1.767-4.5 3.568-9.006 5.72-13.329.889-1.78 2.443-3.642 4.175-4.517 5.071-2.554 9.867-5.125 10.807-11.56zM73.432 10.741c4.119 1.317 8.645 3.556 13.371 4.123 9.58 1.145 18.213 4.466 26.439 9.2 1.153.665 2.265 1.404 3.378 2.13.23.15.385.413.408.928-2.828-1.523-5.691-2.977-8.479-4.574-6.969-3.985-14.524-6-22.451-6.883-4.733-.526-11.008-3.16-12.666-4.924zM122.884 21.466c-4.308-5.176-10.239-7.152-16.503-8.79-7.939-2.078-15.763-4.614-23.64-6.95.064-.223.133-.452.196-.676 3.465 1.025 6.924 2.067 10.394 3.07 6.11 1.763 12.253 3.418 18.333 5.273 4.606 1.402 8.914 3.378 11.415 7.878l-.195.195zM29.682 27.283c-2.725 5.594-4.285 11.611-4.096 17.755.184 6.012 1.503 11.984 2.249 17.412-4.928-11.652-4.578-23.59 1.847-35.167zM131.293 38.752c2.387 5.53 2.846 24.614.563 33.833.275-3.648.659-7.283.785-10.936.132-3.894.184-7.805-.045-11.687-.224-3.744-.849-7.472-1.303-11.21zM43.03 187.03v-12.127c.258-.006.522-.012.78-.012v12.333c-.258-.068-.522-.131-.78-.194z"/>
        <path fill="#fff" d="M83.488 24.397c-9.654.848-17.106-2.851-17.06-8.972 2.977 8.978 10.95 6.974 17.06 8.972zM118.077 182.105c.861-4.328 1.721-8.663 2.576-12.991l1.216.24c-.849 4.34-1.692 8.686-2.541 13.026l-1.251-.275zM113.855 130.946l-.688 12.866c-.39-.017-.774-.04-1.164-.057.189-4.295.384-8.595.573-12.889.425.023.849.052 1.279.08zM113.672 169.383l.723-15.442c.149.011.304.023.453.029v15.396c-.39.011-.78.011-1.176.017zM31.185 172.755c.418 3.693.837 7.386 1.25 11.074l-1.159.137c-.481-3.681-.963-7.369-1.44-11.05.448-.052.901-.109 1.349-.161zM122.884 154.691c.545-5.399 1.09-10.799 1.641-16.198.269.029.539.052.809.08-.528 5.4-1.05 10.805-1.578 16.204l-.872-.086zM89.85 167.31c-.425 3.647-.85 7.289-1.269 10.936-.39-.046-.774-.092-1.164-.132.379-3.641.751-7.288 1.13-10.93.43.04.866.08 1.302.126zM44.045 162.214v-12.115h.614v12.115h-.614zM106.599 145.891v11.949c-.212.006-.424.017-.637.023v-11.989l.637.017zM104.896 181.705c.212-3.493.418-6.986.63-10.478.373.022.74.04 1.113.063-.172 3.492-.35 6.985-.522 10.478-.407-.018-.814-.041-1.221-.063zM82.581 159.146c.448-3.522.89-7.037 1.337-10.559.367.046.734.098 1.101.144l-1.325 10.621-1.113-.206zM39.84 136.38c-.258 3.338-.51 6.676-.762 10.014-.339-.017-.671-.04-1.01-.057.218-3.338.442-6.67.66-10.008l1.113.051zM35.275 155.595v10.364c-.236 0-.47 0-.7.006v-10.387c.235 0 .47.012.7.017zM29.877 151.776v-8.8l1.147.052c-.16 2.925-.316 5.851-.476 8.783l-.671-.035zM129.607 51.079c-1.199-4.626-2.403-9.253-3.602-13.879.224-.057.447-.115.671-.178l3.545 13.8c-.212.085-.413.171-.614.257zM121.68 121.831v12.889h-.66v-12.866c.218-.011.436-.017.66-.023zM123.085 21.271c2.553 3.83 5.1 7.661 7.652 11.491l-.86.55c-2.329-3.95-4.664-7.901-6.993-11.852l.201-.189zM99.325 133.088v11.303l-.636.017v-11.331c.212 0 .424.005.636.011zM126.94 116.266l.705-10.438c.161.012.316.017.476.029V116.3l-1.181-.034zM24.628 116.226c.293-3.15.58-6.299.872-9.454.327.023.654.046.981.063-.281 3.15-.568 6.293-.849 9.442l-1.004-.051zM57.216 148.25v8.353c-.195-.005-.385-.017-.58-.023v-8.319c.195 0 .385-.006.58-.011zM90.32 138.522c-.861-3.001-1.716-6.001-2.576-9.001.396-.097.791-.201 1.187-.298l2.203 9.104c-.27.063-.545.132-.814.195zM53.481 128.084c-.63 2.714-1.267 5.428-1.898 8.142-.31-.075-.625-.149-.935-.218l1.72-8.159c.368.08.74.155 1.113.235zM76.788 169.915c-.39 2.629-.775 5.257-1.165 7.89-.361-.051-.722-.108-1.09-.16.362-2.605.723-5.21 1.09-7.815.39.022.775.051 1.165.085zM62.625 172.664c.126-2.817.247-5.634.373-8.457.224.011.453.029.677.04v8.4c-.35.011-.7.017-1.05.017zM100.157 24.604c4.067 1.185 8.134 2.37 12.201 3.55-.057.206-.115.406-.178.612-4.113-1.197-8.225-2.387-12.333-3.584l.31-.578zM67.719 158.43c.637-2.869 1.268-5.737 1.904-8.612.287.058.568.121.855.178-.58 2.886-1.165 5.777-1.744 8.663-.338-.069-.677-.149-1.015-.229zM51.542 172.332c.184-2.491.373-4.987.557-7.478.321.029.648.063.97.092-.173 2.49-.34 4.987-.511 7.477-.339-.028-.677-.063-1.016-.091zM30.307 132.733c.166-2.576.327-5.153.493-7.73.321.018.643.035.964.058-.212 2.576-.43 5.147-.643 7.724-.27-.023-.544-.04-.814-.052zM41.103 127.007v6.814h-.545v-6.814h.545z"/>
        <path fill="#655D8E" d="M80.35 118.035c.86-8.766 1.595-17.114 2.524-25.44.642-5.77 1.468-11.525 2.358-17.268.59-3.813 3.143-5.857 7.623-5.731 4.95.137 9.889.756 14.834 1.11 3.333.241 6.665.424 10.004.55 1.853.069 4.015-.131 4.038 2.428.023 2.703-2.225 2.685-4.181 2.61-7.922-.291-15.844-.577-23.766-.972-2.403-.12-3.55.389-3.711 3.183-.746 13.026-1.778 26.035-2.616 39.061-.35 5.462-.889 6.149-6.224 6.097-4.967-.051-9.93-.246-14.897-.303-1.755-.017-3.109-.384-2.994-2.468.109-1.924 1.187-2.874 3.178-2.863 4.572.029 9.138.006 13.83.006zM50.705 73.14c-4.663 0-9.338.103-13.996-.086-.912-.04-2.565-1.294-2.507-1.85.12-1.179 1.015-3.126 1.813-3.234 2.776-.39 5.644-.23 8.466-.11 6.758.287 13.51.722 20.272.991 1.675.07 2.926.51 2.926 2.296 0 1.815-1.348 2.296-2.966 2.29-4.67-.017-9.344-.005-14.014-.005.006-.103.006-.2.006-.292z"/>
        <path fill="#655D8E" d="M103.576 88.016c-2.059-.018-4.113-2.096-4.027-4.072.08-1.837 2.117-3.538 4.216-3.515 1.922.023 3.752 1.85 3.672 3.67-.092 1.993-2.008 3.934-3.861 3.916zM54.755 84.076c.023 2.565-1.079 3.79-3.207 3.917-2.277.131-3.831-1.747-3.785-4.34.04-2.36 1.462-3.419 3.59-3.533 2.065-.115 3.442 1.769 3.402 3.956z"/>
    </g>
    <path fill="#3D3569" d="M4.013 254.317c-.448 0-.803-.121-1.064-.364-.243-.261-.364-.606-.364-1.036v-16.94c0-.429.121-.765.364-1.008.261-.261.616-.392 1.064-.392h10.304c.43 0 .756.103.98.308.243.206.364.495.364.868 0 .374-.121.663-.364.868-.224.187-.55.28-.98.28H5.413v6.216h8.344c.43 0 .756.103.98.308.243.206.364.495.364.868 0 .374-.121.663-.364.868-.224.206-.55.308-.98.308H5.413v6.524h8.904c.896 0 1.344.383 1.344 1.148 0 .374-.121.663-.364.868-.224.206-.55.308-.98.308H4.013zm29.791-19.88c.41 0 .737.14.98.42.261.262.392.607.392 1.036v17.108c0 .43-.13.784-.392 1.064-.261.262-.597.392-1.008.392-.485 0-.859-.186-1.12-.56L21.68 239.421v13.58c0 .43-.13.784-.392 1.064-.243.262-.57.392-.98.392-.41 0-.737-.13-.98-.392-.243-.261-.364-.616-.364-1.064v-17.108c0-.429.13-.774.392-1.036.261-.28.597-.42 1.008-.42.485 0 .859.187 1.12.56l10.976 14.504v-13.608c0-.429.121-.774.364-1.036.243-.28.57-.42.98-.42zm20.809 9.408c.354 0 .634.103.84.308.224.206.336.486.336.84v6.552c0 .635-.094 1.092-.28 1.372-.168.28-.514.504-1.036.672-.747.299-1.634.532-2.66.7-1.027.168-2.044.252-3.052.252-1.998 0-3.724-.401-5.18-1.204-1.456-.802-2.567-1.96-3.332-3.472-.766-1.512-1.148-3.322-1.148-5.432 0-2.072.382-3.864 1.148-5.376.765-1.512 1.857-2.669 3.276-3.472 1.437-.821 3.117-1.232 5.04-1.232 1.306 0 2.51.196 3.612.588 1.12.374 2.072.924 2.856 1.652.373.299.56.672.56 1.12 0 .336-.094.626-.28.868-.187.224-.411.336-.672.336-.168 0-.318-.028-.448-.084-.131-.056-.3-.149-.504-.28-.915-.672-1.746-1.138-2.492-1.4-.747-.28-1.606-.42-2.576-.42-2.128 0-3.752.663-4.872 1.988-1.12 1.307-1.68 3.211-1.68 5.712 0 2.558.569 4.499 1.708 5.824 1.157 1.307 2.846 1.96 5.068 1.96 1.493 0 2.93-.224 4.312-.672v-5.516h-3.668c-.374 0-.672-.093-.896-.28-.206-.205-.308-.476-.308-.812 0-.336.102-.597.308-.784.224-.205.522-.308.896-.308h5.124zm6.959 10.612c-.43 0-.775-.13-1.036-.392-.262-.261-.392-.616-.392-1.064v-17.108c0-.429.13-.774.392-1.036.261-.28.606-.42 1.036-.42.448 0 .802.131 1.064.392.261.262.392.616.392 1.064v17.108c0 .448-.131.803-.392 1.064-.243.262-.598.392-1.064.392zm20.876-20.02c.411 0 .738.14.98.42.262.262.392.607.392 1.036v17.108c0 .43-.13.784-.391 1.064-.262.262-.598.392-1.008.392-.486 0-.86-.186-1.12-.56l-10.977-14.476v13.58c0 .43-.13.784-.391 1.064-.243.262-.57.392-.98.392-.411 0-.738-.13-.98-.392-.243-.261-.364-.616-.364-1.064v-17.108c0-.429.13-.774.392-1.036.26-.28.597-.42 1.007-.42.486 0 .86.187 1.12.56l10.977 14.504v-13.608c0-.429.12-.774.364-1.036.242-.28.569-.42.98-.42zm7.397 19.88c-.448 0-.803-.121-1.064-.364-.243-.261-.364-.606-.364-1.036v-16.94c0-.429.121-.765.364-1.008.261-.261.616-.392 1.064-.392h10.304c.429 0 .756.103.98.308.243.206.364.495.364.868 0 .374-.121.663-.364.868-.224.187-.551.28-.98.28h-8.904v6.216h8.344c.429 0 .756.103.98.308.243.206.364.495.364.868 0 .374-.121.663-.364.868-.224.206-.551.308-.98.308h-8.344v6.524h8.904c.896 0 1.344.383 1.344 1.148 0 .374-.121.663-.364.868-.224.206-.551.308-.98.308H89.845zm16.379 0c-.448 0-.803-.121-1.064-.364-.243-.261-.364-.606-.364-1.036v-16.94c0-.429.121-.765.364-1.008.261-.261.616-.392 1.064-.392h10.304c.429 0 .756.103.98.308.243.206.364.495.364.868 0 .374-.121.663-.364.868-.224.187-.551.28-.98.28h-8.904v6.216h8.344c.429 0 .756.103.98.308.243.206.364.495.364.868 0 .374-.121.663-.364.868-.224.206-.551.308-.98.308h-8.344v6.524h8.904c.896 0 1.344.383 1.344 1.148 0 .374-.121.663-.364.868-.224.206-.551.308-.98.308h-10.304zm30.351-1.792c.168.243.252.504.252.784 0 .336-.14.626-.42.868-.261.224-.569.336-.924.336-.523 0-.943-.233-1.26-.7l-3.752-5.824c-.429-.672-.887-1.138-1.372-1.4-.485-.28-1.12-.42-1.904-.42h-3.164v6.832c0 .448-.131.803-.392 1.064-.243.262-.588.392-1.036.392-.429 0-.775-.13-1.036-.392-.261-.261-.392-.616-.392-1.064v-17.024c0-.429.121-.765.364-1.008.261-.261.616-.392 1.064-.392h6.972c2.184 0 3.845.486 4.984 1.456 1.157.971 1.736 2.39 1.736 4.256 0 1.55-.439 2.81-1.316 3.78-.877.952-2.128 1.559-3.752 1.82.485.131.924.364 1.316.7.392.336.775.803 1.148 1.4l2.884 4.536zm-7.336-8.68c1.456 0 2.529-.28 3.22-.84.709-.578 1.064-1.465 1.064-2.66 0-1.194-.345-2.062-1.036-2.604-.691-.56-1.773-.84-3.248-.84h-5.236v6.944h5.236zm17.737 10.696c-1.418 0-2.772-.196-4.06-.588-1.269-.392-2.286-.933-3.052-1.624-.354-.298-.532-.681-.532-1.148 0-.336.094-.616.28-.84.187-.242.411-.364.672-.364.262 0 .579.122.952.364 1.662 1.232 3.556 1.848 5.684 1.848 1.494 0 2.642-.28 3.444-.84.803-.56 1.204-1.362 1.204-2.408 0-.821-.373-1.437-1.12-1.848-.746-.41-1.941-.802-3.584-1.176-1.568-.336-2.856-.718-3.864-1.148-1.008-.429-1.801-1.008-2.38-1.736-.56-.746-.84-1.689-.84-2.828 0-1.138.308-2.146.924-3.024.635-.896 1.512-1.586 2.632-2.072 1.12-.504 2.399-.756 3.836-.756 1.326 0 2.548.187 3.668.56 1.12.374 2.072.924 2.856 1.652.374.318.56.7.56 1.148 0 .318-.102.598-.308.84-.186.243-.41.364-.672.364-.242 0-.55-.121-.924-.364-.858-.653-1.67-1.12-2.436-1.4-.746-.298-1.652-.448-2.716-.448-1.437 0-2.557.299-3.36.896-.802.579-1.204 1.391-1.204 2.436 0 .896.355 1.578 1.064 2.044.71.448 1.848.859 3.416 1.232 1.643.374 2.968.766 3.976 1.176 1.027.392 1.839.943 2.436 1.652.616.691.924 1.587.924 2.688 0 1.12-.317 2.119-.952 2.996-.616.859-1.493 1.531-2.632 2.016-1.12.467-2.417.7-3.892.7z" opacity=".8"/>
    <defs>
        <clipPath id="clip0">
            <path fill="#fff" d="M0 0H143.377V202.827H0z" transform="translate(7.098)"/>
        </clipPath>
    </defs>
</svg>
