<svg xmlns="http://www.w3.org/2000/svg" width="370" height="348" fill="none" viewBox="0 0 370 348">
    <rect width="336.412" height="346.904" x="32.872" y=".548" fill="url(#paint0_linear)" rx="168.206"/>
    <rect width="369.284" height="337.811" y="9.64" fill="url(#paint1_linear)" opacity=".3" rx="168.906"/>
    <g style="mix-blend-mode:luminosity" clip-path="url(#clip0)">
        <path fill="#655D8E" d="M260.255 133.617c7.555 1.145 11.255 4.689 12.001 12.104.504 5.01.568 10.083.47 15.122-.092 4.838-2.553 7.815-7.274 9.029-2.535.653-5.22.739-8.019 1.111-.608 8.337-.986 17-1.921 25.605-1.756 16.244-2.565 32.671-8.129 48.285-.321.899-.728 1.763-1.009 2.674-1.997 6.384-6.465 9.865-12.918 11.096-10.911 2.079-21.901 3.235-33.012 2.628-10.773-.589-21.534-1.34-32.295-2.118-2.559-.183-5.1-.682-7.63-1.157-6.086-1.145-9.614-4.987-10.434-10.953-1.686-12.247-3.631-24.495-4.474-36.81-1.09-15.958-1.211-31.978-1.75-48.182-.745-.178-1.64-.43-2.552-.59-8.806-1.563-12.591-6.184-11.834-15.041.281-3.281 1.084-6.579 2.134-9.711 1.766-5.268 5.019-7.369 10.566-7.438.952-.011 1.904 0 3.034 0 0-2.261.075-4.408-.017-6.556-.258-6.092-.35-12.207-.929-18.27-1.021-10.736 3.826-19.576 8.627-28.497 1.83-3.39 4.572-5.731 7.887-7.65 5.054-2.914 10.211-3.257 15.695-1.54 3.809 1.197 7.176 1.174 10.847-1.557 5.18-3.853 11.06-6.241 17.949-6.544 15.344-.676 28.245 5.382 40.589 13.323 11.203 7.209 15.746 17.973 16.653 30.902.636 9.103.321 18.081-1.262 27.031-.195 1.196-.62 2.364-.993 3.704zm-15.08-53.552c2.329 3.95 4.663 7.901 6.992 11.852l.861-.55c-2.553-3.83-5.1-7.66-7.652-11.491-2.501-4.506-6.809-6.476-11.416-7.879-6.08-1.855-12.223-3.51-18.333-5.273-3.47-1.002-6.929-2.044-10.394-3.069-.063.223-.132.452-.195.676 7.876 2.336 15.695 4.872 23.639 6.95 6.259 1.632 12.19 3.608 16.498 8.784zM182.816 74.7l-.516-.035c-.637 2.674-1.434 5.325-1.876 8.028-.814 4.975-3.694 8.205-8.094 10.335-1.973.956-4.113 1.74-5.793 3.092-2.255 1.809-4.974 3.733-6.023 6.229-3.253 7.747-6.471 15.494-6.167 24.329.499 14.508 1.509 28.954 4.446 43.16 2.111 10.226 3.872 10.902 12.241 12.07 6.419.898 12.912 1.591 19.383 1.671 11.547.149 23.099-.148 34.647-.423 8.489-.201 13.113-4.014 15.327-12.219.126-.458.224-.922.315-1.391.511-2.508.975-5.033 1.532-7.529 1.193-5.365 3.161-10.679 3.493-16.095.517-8.52.081-17.109-.223-25.657-.15-4.266-.465-8.623-1.469-12.751-2.748-11.291-6.344-16.038-17.805-17.298-4.331-.475-8.754-.103-13.136-.171-5.891-.086-11.823.16-17.662-.453-5.851-.612-10.084-3.807-11.387-9.985-.344-1.65-.814-3.27-1.233-4.907zm73.424 63.251c.384 5.846.751 11.4 1.136 17.189 1.864-.441 3.401-.807 5.082-1.202-.281-1.323-.522-2.422-.74-3.527-.246-1.214-.717-2.445-.631-3.636.069-.934.832-1.81 1.291-2.714.889.641 2.231 1.099 2.57 1.958.768 1.924 1.107 4.031 1.491 6.081.74 3.95-.292 5.37-4.308 6.12-4.956.928-4.956.928-4.721 6.093.012.263.172.521.379 1.093 1.147 0 2.369.086 3.574-.017 4.743-.401 6.12-1.477 6.522-6.201.361-4.26.269-8.571.074-12.848-.08-1.718-.688-3.55-1.543-5.062-2.226-3.905-6.052-3.561-10.176-3.327zm-112.677 12.282c.356-.143.711-.28 1.073-.424.418-5.554.831-11.107 1.262-16.793-1.079-.052-1.928-.12-2.777-.12-5.122.005-6.832 1.214-7.979 6.269-.671 2.949-.849 6.012-1.245 9.018-.459 3.51 1.262 5.938 4.153 7.461 1.842.973 3.976 1.385 6.196 2.124v-3.006c-5.542-1.288-7.331-3.676-7.004-9.287.137-2.376.298-4.758.487-7.128.132-1.638.987-3.001 2.668-2.457.843.275 1.657 1.907 1.738 2.978.183 2.456-.293 4.958-.109 7.414.103 1.346 1.003 2.634 1.537 3.951zm32.731 47.317c4.285 2.64 29.077 3.75 32.622 1.5-3.39 0-6.184.183-8.949-.034-6.82-.55-13.617-1.306-20.432-1.918-.838-.08-1.698.223-3.241.452zm-2.501-122.547c-.941 6.436-5.736 9.007-10.813 11.56-1.732.87-3.287 2.737-4.176 4.518-2.157 4.323-3.952 8.829-5.719 13.329-.705 1.798-.958 3.768-1.417 5.663.706-.097 1.033-.326 1.142-.635 1.675-4.621 3.396-9.23 4.944-13.897 1.635-4.895 4.647-8.285 9.494-10.317 4.273-1.793 6.39-5.417 6.545-10.22zm21.93-5.662c1.657 1.763 7.933 4.397 12.665 4.924 7.928.876 15.482 2.891 22.452 6.882 2.788 1.592 5.65 3.052 8.478 4.575-.029-.51-.178-.773-.407-.928-1.113-.727-2.226-1.466-3.379-2.13-8.226-4.73-16.859-8.056-26.438-9.2-4.733-.568-9.258-2.8-13.371-4.123zm-43.751 16.541c-6.424 11.577-6.774 23.515-1.847 35.162-.745-5.423-2.065-11.4-2.248-17.412-.195-6.144 1.365-12.162 4.095-17.75zm101.612 11.469c.448 3.739 1.079 7.46 1.302 11.211.23 3.882.178 7.798.046 11.686-.126 3.647-.516 7.288-.786 10.936 2.289-9.219 1.824-28.297-.562-33.833zm-88.263 148.278c.258.063.522.131.78.194V233.49c-.258.006-.522.012-.78.012v12.127zm40.457-162.633c-6.109-2.004-14.082 0-17.059-8.972-.046 6.121 7.399 9.82 17.059 8.972zm34.59 157.709l1.25.274c.849-4.34 1.693-8.685 2.542-13.025l-1.217-.241c-.86 4.329-1.715 8.663-2.575 12.992zm-4.222-51.159c-.425-.029-.849-.058-1.279-.081-.189 4.3-.385 8.595-.574 12.889.39.017.775.04 1.165.057l.688-12.865zm-.184 38.436l1.176-.017v-15.396c-.149-.012-.304-.023-.453-.029l-.723 15.442zm-82.487 3.373c-.447.051-.9.108-1.348.16.482 3.682.964 7.369 1.44 11.05.39-.045.774-.091 1.159-.137-.413-3.687-.832-7.38-1.251-11.073zm91.7-18.065l.872.086c.527-5.399 1.049-10.804 1.577-16.204-.269-.028-.539-.051-.809-.08-.55 5.399-1.095 10.799-1.64 16.198zm-33.035 12.619c-.436-.045-.872-.085-1.302-.131-.379 3.641-.752 7.289-1.13 10.93.39.046.774.092 1.164.132.419-3.642.843-7.283 1.268-10.931zm-45.804-5.095h.614v-12.116h-.614v12.116zm62.554-16.324l-.637-.018v11.99c.212-.006.424-.017.637-.023V204.49zm-13.67 49.097c.138-.011.27-.028.407-.04v-11.972l-.407.034v11.978zm11.966-13.283c.407.023.815.04 1.216.063.172-3.493.35-6.986.522-10.478-.373-.023-.74-.04-1.113-.063-.206 3.498-.413 6.985-.625 10.478zm-22.314-22.559c.373.068.74.137 1.113.206l1.325-10.621c-.367-.046-.734-.098-1.101-.144-.448 3.522-.895 7.037-1.337 10.559zm-42.741-22.766c-.373-.017-.74-.034-1.113-.057-.218 3.338-.441 6.67-.659 10.009.338.017.671.04 1.009.057.253-3.333.511-6.671.763-10.009zm-4.566 19.216l-.7-.017v10.386c.236 0 .471 0 .7-.006v-10.363zm-5.398-3.819l.671.034c.161-2.926.316-5.852.477-8.783l-1.148-.052v8.801zm37.016 38.814c.31.012.614.017.924.029l.671-10.558c-.327-.018-.648-.029-.975-.046l-.62 10.575zm-12.333-10.06c-.344.063-.688.132-1.026.195.619 3.183 1.239 6.367 1.858 9.556.35-.069.706-.138 1.056-.2-.626-3.184-1.257-6.367-1.888-9.551zm75.048-129.452c.2-.086.401-.172.608-.258-1.182-4.597-2.364-9.195-3.545-13.799-.224.058-.448.115-.671.178 1.204 4.626 2.403 9.253 3.608 13.879zm-7.928 70.752l-.659.018v12.865h.659V180.43zm-13.629 73.283c.338.069.677.138 1.015.201.625-2.943 1.251-5.892 1.882-8.835-.333-.069-.671-.132-1.004-.2l-1.893 8.834zm-27.683-9.985c-.195.005-.396.017-.591.023v9.052c.195-.006.396-.017.591-.023v-9.052zm18.958-52.041l-.637-.017v11.331l.637-.017v-11.297zm27.614-16.822l1.176.034v-10.443c-.16-.012-.315-.018-.476-.029-.229 3.481-.464 6.957-.7 10.438zm-102.311-.04l1.004.051c.281-3.149.567-6.292.848-9.441-.326-.023-.653-.046-.98-.063-.293 3.149-.586 6.304-.872 9.453zm32.587 32.024c-.195.005-.384.005-.579.011v8.32c.195.005.384.017.579.022v-8.353zm33.104-9.728c.27-.063.545-.132.815-.195l-2.203-9.104c-.396.098-.792.201-1.187.298.86 3 1.715 6 2.575 9.001zm-36.838-10.438l-1.113-.241-1.721 8.159c.31.075.626.149.935.218.631-2.708 1.268-5.422 1.899-8.136zm23.306 41.832c-.39-.029-.774-.063-1.164-.092-.361 2.605-.723 5.21-1.09 7.816.361.051.723.108 1.09.16.39-2.628.774-5.256 1.164-7.884zm-14.162 2.748c.349-.006.699-.011 1.049-.011v-8.4c-.223-.012-.453-.029-.677-.04-.126 2.817-.252 5.634-.372 8.451zm37.532-148.06c-.103.194-.207.389-.31.578 4.113 1.196 8.226 2.387 12.333 3.584.057-.206.115-.406.178-.613-4.067-1.185-8.134-2.364-12.201-3.55zm-32.439 133.826c.339.08.677.154 1.016.235.579-2.886 1.164-5.778 1.743-8.663-.286-.058-.567-.121-.854-.178-.631 2.869-1.268 5.737-1.905 8.606zm-16.176 13.902c.339.029.677.063 1.015.091.173-2.49.339-4.987.511-7.477-.321-.029-.648-.063-.969-.092-.184 2.491-.373 4.987-.557 7.478zm-21.235-39.599c.269.017.544.029.814.046.212-2.577.43-5.148.643-7.724-.322-.017-.643-.034-.964-.057-.166 2.576-.327 5.158-.493 7.735zm10.795-5.726h-.545v6.814h.545v-6.814z"/>
        <path fill="#fff" d="M182.817 74.7c.413 1.637.889 3.257 1.233 4.906 1.297 6.178 5.536 9.373 11.387 9.986 5.839.612 11.77.366 17.661.452 4.383.063 8.806-.309 13.136.172 11.461 1.26 15.058 6 17.806 17.297 1.004 4.129 1.313 8.48 1.468 12.751.304 8.549.74 17.137.224 25.657-.327 5.417-2.295 10.73-3.493 16.095-.557 2.502-1.021 5.022-1.532 7.529-.092.464-.195.934-.315 1.392-2.215 8.205-6.844 12.018-15.328 12.218-11.547.269-23.1.567-34.647.424-6.47-.08-12.964-.773-19.382-1.672-8.37-1.168-10.125-1.844-12.242-12.07-2.937-14.205-3.946-28.651-4.445-43.16-.304-8.84 2.914-16.587 6.166-24.328 1.044-2.49 3.763-4.42 6.023-6.23 1.675-1.345 3.815-2.135 5.794-3.092 4.405-2.13 7.279-5.359 8.094-10.335.442-2.708 1.239-5.353 1.876-8.027l.516.034zm19.824 101.934c-4.692 0-9.258.023-13.824-.012-1.991-.017-3.069.934-3.178 2.863-.115 2.084 1.239 2.445 2.994 2.468 4.968.051 9.93.252 14.897.303 5.335.058 5.874-.629 6.224-6.097.832-13.021 1.87-26.035 2.616-39.061.161-2.788 1.308-3.304 3.711-3.184 7.916.395 15.838.682 23.766.974 1.956.074 4.199.091 4.181-2.611-.017-2.56-2.185-2.359-4.038-2.428-3.339-.126-6.671-.309-10.004-.549-4.945-.355-9.884-.974-14.834-1.111-4.474-.12-7.033 1.924-7.623 5.731-.89 5.743-1.716 11.497-2.358 17.269-.935 8.336-1.669 16.679-2.53 25.445zm-29.645-44.895v.286c4.67 0 9.345-.012 14.014.006 1.612.005 2.966-.476 2.966-2.291 0-1.786-1.251-2.227-2.926-2.296-6.757-.269-13.509-.698-20.272-.99-2.828-.12-5.696-.281-8.466.109-.792.114-1.693 2.055-1.813 3.235-.057.555 1.595 1.815 2.507 1.849 4.658.195 9.327.092 13.99.092zm52.871 14.875c1.853.017 3.769-1.924 3.855-3.911.08-1.826-1.744-3.647-3.671-3.67-2.094-.023-4.136 1.678-4.216 3.516-.081 1.969 1.979 4.048 4.032 4.065zm-48.821-3.939c.04-2.187-1.336-4.071-3.396-3.957-2.128.115-3.55 1.174-3.591 3.533-.045 2.594 1.509 4.472 3.786 4.34 2.128-.12 3.23-1.351 3.201-3.916zM256.241 137.951c4.124-.235 7.95-.578 10.17 3.332.855 1.506 1.469 3.344 1.543 5.062.195 4.277.287 8.588-.074 12.848-.402 4.724-1.779 5.8-6.523 6.201-1.204.103-2.426.017-3.573.017-.207-.572-.367-.83-.379-1.093-.241-5.165-.235-5.165 4.721-6.092 4.015-.75 5.048-2.165 4.308-6.121-.384-2.056-.723-4.163-1.491-6.081-.345-.859-1.681-1.317-2.57-1.958-.459.905-1.222 1.781-1.291 2.714-.086 1.191.39 2.422.631 3.636.224 1.105.465 2.204.74 3.527-1.675.395-3.212.761-5.082 1.202-.379-5.794-.746-11.348-1.13-17.194zM143.564 150.233c-.539-1.317-1.434-2.6-1.538-3.951-.183-2.456.287-4.959.109-7.415-.08-1.071-.894-2.702-1.738-2.977-1.68-.544-2.535.824-2.667 2.456-.189 2.376-.35 4.752-.488 7.129-.332 5.611 1.463 7.998 7.004 9.287v3.006c-2.22-.739-4.353-1.151-6.195-2.125-2.891-1.523-4.612-3.956-4.153-7.46.396-3.012.58-6.069 1.245-9.018 1.147-5.056 2.851-6.264 7.979-6.27.849 0 1.698.075 2.776.121-.424 5.691-.843 11.245-1.262 16.793-.355.143-.711.28-1.072.424zM176.295 197.55c1.543-.229 2.409-.533 3.235-.458 6.815.612 13.618 1.368 20.432 1.918 2.765.223 5.559.034 8.949.034-3.539 2.256-28.337 1.151-32.616-1.494zM173.794 75.003c-.155 4.803-2.272 8.428-6.545 10.22-4.853 2.033-7.865 5.422-9.488 10.318-1.549 4.666-3.275 9.27-4.945 13.896-.114.309-.436.544-1.141.636.459-1.89.711-3.865 1.417-5.663 1.766-4.5 3.568-9.007 5.719-13.33.889-1.78 2.443-3.641 4.176-4.517 5.071-2.554 9.866-5.125 10.807-11.56zM195.723 69.34c4.119 1.317 8.645 3.556 13.372 4.123 9.579 1.145 18.212 4.466 26.438 9.2 1.153.665 2.266 1.404 3.379 2.13.229.15.384.413.407.928-2.828-1.523-5.691-2.977-8.478-4.575-6.97-3.985-14.524-6-22.452-6.882-4.732-.527-11.008-3.16-12.666-4.924zM245.175 80.064c-4.307-5.176-10.239-7.151-16.503-8.789-7.939-2.078-15.763-4.615-23.639-6.95.063-.224.132-.453.195-.676 3.465 1.025 6.924 2.067 10.394 3.069 6.109 1.763 12.253 3.418 18.333 5.273 4.607 1.403 8.914 3.378 11.415 7.879l-.195.194zM151.973 85.882c-2.725 5.594-4.285 11.611-4.096 17.755.184 6.012 1.503 11.984 2.249 17.412-4.928-11.652-4.578-23.59 1.847-35.167zM253.585 97.35c2.386 5.531 2.845 24.615.562 33.833.275-3.647.66-7.283.786-10.936.132-3.893.183-7.804-.046-11.686-.224-3.745-.849-7.472-1.302-11.21zM165.321 245.628v-12.127c.258-.006.522-.011.78-.011v12.333c-.258-.069-.522-.132-.78-.195z"/>
        <path fill="#fff" d="M205.779 82.996c-9.654.847-17.105-2.852-17.06-8.972 2.978 8.978 10.951 6.974 17.06 8.972zM240.369 240.704c.86-4.329 1.721-8.663 2.575-12.992l1.216.241c-.849 4.34-1.692 8.686-2.541 13.026-.413-.092-.832-.183-1.25-.275zM236.147 189.545l-.689 12.866c-.39-.018-.774-.04-1.164-.058.189-4.294.384-8.594.574-12.888.424.023.849.051 1.279.08zM235.963 227.981l.723-15.442c.149.012.304.023.453.029v15.396c-.39.012-.78.012-1.176.017zM153.476 231.354c.419 3.693.837 7.386 1.25 11.073l-1.158.138c-.482-3.682-.964-7.369-1.44-11.051.447-.051.901-.108 1.348-.16zM245.176 213.29c.544-5.4 1.089-10.799 1.64-16.198.27.028.539.051.809.08-.528 5.399-1.05 10.804-1.578 16.203l-.871-.085zM212.14 225.909c-.424 3.647-.849 7.289-1.267 10.936-.39-.046-.775-.092-1.165-.132.379-3.641.752-7.289 1.13-10.93.431.04.866.08 1.302.126zM166.336 220.813v-12.115h.614v12.115h-.614zM228.89 204.489v11.95c-.212.005-.424.017-.636.023v-11.99l.636.017zM227.187 240.303c.212-3.492.418-6.985.631-10.478.372.023.739.04 1.112.063-.172 3.493-.35 6.986-.522 10.478-.407-.017-.814-.04-1.221-.063zM204.873 217.744c.447-3.521.889-7.037 1.336-10.558.367.046.734.097 1.101.143l-1.325 10.621-1.112-.206zM162.132 194.979c-.258 3.338-.511 6.676-.763 10.014-.338-.017-.671-.04-1.01-.057.218-3.338.442-6.671.66-10.009l1.113.052zM157.566 214.194v10.364c-.235 0-.471 0-.7.005v-10.386c.235 0 .47.011.7.017zM152.168 210.375v-8.8l1.147.051c-.16 2.926-.315 5.852-.476 8.783l-.671-.034zM251.899 109.678c-1.199-4.627-2.404-9.253-3.603-13.88.224-.057.448-.114.671-.177 1.182 4.598 2.364 9.196 3.545 13.799-.212.086-.413.172-.613.258zM243.971 180.43v12.888h-.66v-12.865c.218-.012.436-.017.66-.023zM245.376 79.87c2.553 3.83 5.1 7.66 7.652 11.491l-.86.55c-2.329-3.951-4.664-7.902-6.992-11.852l.2-.19zM221.617 191.687v11.302l-.637.017v-11.331c.212 0 .424.006.637.012zM249.231 174.864l.706-10.437c.16.011.315.017.476.028v10.444l-1.182-.035zM146.919 174.824c.293-3.149.58-6.298.872-9.453.327.023.654.046.981.063-.281 3.149-.568 6.293-.849 9.442l-1.004-.052zM179.507 206.848v8.354c-.195-.006-.384-.017-.58-.023v-8.319c.196 0 .385-.006.58-.012zM212.611 197.12c-.861-3-1.715-6-2.576-9 .396-.098.792-.201 1.188-.298l2.202 9.104c-.269.063-.545.131-.814.194zM175.773 186.682c-.631 2.714-1.268 5.428-1.899 8.142-.31-.074-.625-.149-.935-.217l1.721-8.159c.367.08.74.154 1.113.234zM199.079 228.514c-.39 2.628-.774 5.256-1.164 7.89-.362-.051-.723-.109-1.09-.16.361-2.605.722-5.211 1.09-7.816.39.023.774.052 1.164.086zM184.916 231.263c.126-2.818.247-5.635.373-8.457.224.011.453.028.677.04v8.399c-.35.012-.7.018-1.05.018zM222.448 83.202c4.067 1.185 8.134 2.37 12.201 3.55-.057.206-.114.406-.177.613-4.113-1.197-8.226-2.388-12.333-3.585.103-.195.206-.383.309-.578zM190.01 217.028c.637-2.868 1.268-5.737 1.904-8.611.287.057.568.12.855.177-.579 2.886-1.164 5.778-1.744 8.663-.338-.068-.677-.148-1.015-.229zM173.834 230.93c.183-2.49.373-4.987.556-7.477.321.028.648.063.97.091-.173 2.491-.339 4.987-.511 7.478-.338-.029-.677-.063-1.015-.092zM152.598 191.331c.166-2.576.327-5.153.493-7.729.322.017.643.034.964.057-.212 2.577-.43 5.147-.642 7.724-.27-.023-.545-.04-.815-.052zM163.394 185.606v6.814h-.545v-6.814h.545z"/>
        <path fill="#655D8E" d="M202.641 176.634c.861-8.766 1.595-17.114 2.524-25.439.643-5.772 1.469-11.526 2.358-17.269.591-3.813 3.143-5.858 7.623-5.732 4.951.138 9.89.756 14.834 1.111 3.333.241 6.666.424 10.004.55 1.853.069 4.016-.132 4.039 2.428.022 2.702-2.226 2.685-4.182 2.611-7.922-.293-15.844-.579-23.765-.974-2.404-.12-3.551.389-3.712 3.184-.746 13.026-1.778 26.034-2.616 39.06-.349 5.463-.889 6.15-6.223 6.098-4.968-.051-9.93-.246-14.897-.303-1.756-.018-3.109-.384-2.995-2.468.109-1.924 1.188-2.874 3.178-2.863 4.572.029 9.138.006 13.83.006zM172.996 131.739c-4.663 0-9.338.103-13.996-.086-.912-.04-2.564-1.294-2.507-1.85.121-1.179 1.015-3.126 1.813-3.235 2.776-.389 5.644-.229 8.467-.109 6.757.287 13.508.722 20.271.991 1.675.069 2.926.51 2.926 2.296 0 1.815-1.348 2.296-2.966 2.29-4.669-.017-9.344-.005-14.013-.005.005-.104.005-.201.005-.292z"/>
        <path fill="#655D8E" d="M225.867 146.614c-2.059-.017-4.113-2.096-4.026-4.071.08-1.838 2.116-3.539 4.216-3.516 1.921.023 3.751 1.85 3.671 3.67-.092 1.993-2.008 3.934-3.861 3.917zM177.046 142.675c.023 2.565-1.078 3.79-3.206 3.916-2.278.132-3.832-1.746-3.786-4.34.04-2.359 1.462-3.418 3.591-3.533 2.065-.114 3.441 1.77 3.401 3.957z"/>
    </g>
    <path fill="#fff" d="M126.304 302.916c-.448 0-.802-.121-1.064-.364-.242-.261-.364-.606-.364-1.036v-16.94c0-.429.122-.765.364-1.008.262-.261.616-.392 1.064-.392h10.304c.43 0 .756.103.98.308.243.206.364.495.364.868 0 .374-.121.663-.364.868-.224.187-.55.28-.98.28h-8.904v6.216h8.344c.43 0 .756.103.98.308.243.206.364.495.364.868 0 .374-.121.663-.364.868-.224.206-.55.308-.98.308h-8.344v6.524h8.904c.896 0 1.344.383 1.344 1.148 0 .374-.121.663-.364.868-.224.206-.55.308-.98.308h-10.304zm29.791-19.88c.411 0 .738.14.98.42.262.262.392.607.392 1.036V301.6c0 .43-.13.784-.392 1.064-.261.262-.597.392-1.008.392-.485 0-.858-.186-1.12-.56l-10.976-14.476v13.58c0 .43-.13.784-.392 1.064-.242.262-.569.392-.98.392-.41 0-.737-.13-.98-.392-.242-.261-.364-.616-.364-1.064v-17.108c0-.429.131-.774.392-1.036.262-.28.598-.42 1.008-.42.486 0 .859.187 1.12.56l10.976 14.504v-13.608c0-.429.122-.774.364-1.036.243-.28.57-.42.98-.42zm20.809 9.408c.354 0 .634.103.84.308.224.206.336.486.336.84v6.552c0 .635-.094 1.092-.28 1.372-.168.28-.514.504-1.036.672-.747.299-1.634.532-2.66.7-1.027.168-2.044.252-3.052.252-1.998 0-3.724-.401-5.18-1.204-1.456-.802-2.567-1.96-3.332-3.472-.766-1.512-1.148-3.322-1.148-5.432 0-2.072.382-3.864 1.148-5.376.765-1.512 1.857-2.669 3.276-3.472 1.437-.821 3.117-1.232 5.04-1.232 1.306 0 2.51.196 3.612.588 1.12.374 2.072.924 2.856 1.652.373.299.56.672.56 1.12 0 .336-.094.626-.28.868-.187.224-.411.336-.672.336-.168 0-.318-.028-.448-.084-.131-.056-.299-.149-.504-.28-.915-.672-1.746-1.138-2.492-1.4-.747-.28-1.606-.42-2.576-.42-2.128 0-3.752.663-4.872 1.988-1.12 1.307-1.68 3.211-1.68 5.712 0 2.558.569 4.499 1.708 5.824 1.157 1.307 2.846 1.96 5.068 1.96 1.493 0 2.93-.224 4.312-.672v-5.516h-3.668c-.374 0-.672-.093-.896-.28-.206-.205-.308-.476-.308-.812 0-.336.102-.597.308-.784.224-.205.522-.308.896-.308h5.124zm6.959 10.612c-.429 0-.775-.13-1.036-.392-.261-.261-.392-.616-.392-1.064v-17.108c0-.429.131-.774.392-1.036.261-.28.607-.42 1.036-.42.448 0 .803.131 1.064.392.261.262.392.616.392 1.064V301.6c0 .448-.131.803-.392 1.064-.243.262-.597.392-1.064.392zm20.877-20.02c.41 0 .737.14.98.42.261.262.392.607.392 1.036V301.6c0 .43-.131.784-.392 1.064-.262.262-.598.392-1.008.392-.486 0-.859-.186-1.12-.56l-10.976-14.476v13.58c0 .43-.131.784-.392 1.064-.243.262-.57.392-.98.392-.411 0-.738-.13-.98-.392-.243-.261-.364-.616-.364-1.064v-17.108c0-.429.13-.774.392-1.036.261-.28.597-.42 1.008-.42.485 0 .858.187 1.12.56l10.976 14.504v-13.608c0-.429.121-.774.364-1.036.242-.28.569-.42.98-.42zm7.396 19.88c-.448 0-.802-.121-1.064-.364-.242-.261-.364-.606-.364-1.036v-16.94c0-.429.122-.765.364-1.008.262-.261.616-.392 1.064-.392h10.304c.43 0 .756.103.98.308.243.206.364.495.364.868 0 .374-.121.663-.364.868-.224.187-.55.28-.98.28h-8.904v6.216h8.344c.43 0 .756.103.98.308.243.206.364.495.364.868 0 .374-.121.663-.364.868-.224.206-.55.308-.98.308h-8.344v6.524h8.904c.896 0 1.344.383 1.344 1.148 0 .374-.121.663-.364.868-.224.206-.55.308-.98.308h-10.304zm16.379 0c-.448 0-.802-.121-1.064-.364-.242-.261-.364-.606-.364-1.036v-16.94c0-.429.122-.765.364-1.008.262-.261.616-.392 1.064-.392h10.304c.43 0 .756.103.98.308.243.206.364.495.364.868 0 .374-.121.663-.364.868-.224.187-.55.28-.98.28h-8.904v6.216h8.344c.43 0 .756.103.98.308.243.206.364.495.364.868 0 .374-.121.663-.364.868-.224.206-.55.308-.98.308h-8.344v6.524h8.904c.896 0 1.344.383 1.344 1.148 0 .374-.121.663-.364.868-.224.206-.55.308-.98.308h-10.304zm30.351-1.792c.168.243.252.504.252.784 0 .336-.14.626-.42.868-.261.224-.569.336-.924.336-.523 0-.943-.233-1.26-.7l-3.752-5.824c-.429-.672-.886-1.138-1.372-1.4-.485-.28-1.12-.42-1.904-.42h-3.164v6.832c0 .448-.131.803-.392 1.064-.243.262-.588.392-1.036.392-.429 0-.775-.13-1.036-.392-.261-.261-.392-.616-.392-1.064v-17.024c0-.429.121-.765.364-1.008.261-.261.616-.392 1.064-.392h6.972c2.184 0 3.845.486 4.984 1.456 1.158.971 1.736 2.39 1.736 4.256 0 1.55-.438 2.81-1.316 3.78-.877.952-2.128 1.559-3.752 1.82.485.131.924.364 1.316.7.392.336.775.803 1.148 1.4l2.884 4.536zm-7.336-8.68c1.456 0 2.529-.28 3.22-.84.709-.578 1.064-1.465 1.064-2.66 0-1.194-.345-2.062-1.036-2.604-.69-.56-1.773-.84-3.248-.84h-5.236v6.944h5.236zm17.738 10.696c-1.419 0-2.772-.196-4.06-.588-1.27-.392-2.287-.933-3.052-1.624-.355-.298-.532-.681-.532-1.148 0-.336.093-.616.28-.84.186-.242.41-.364.672-.364.261 0 .578.122.952.364 1.661 1.232 3.556 1.848 5.684 1.848 1.493 0 2.641-.28 3.444-.84.802-.56 1.204-1.362 1.204-2.408 0-.821-.374-1.437-1.12-1.848-.747-.41-1.942-.802-3.584-1.176-1.568-.336-2.856-.718-3.864-1.148-1.008-.429-1.802-1.008-2.38-1.736-.56-.746-.84-1.689-.84-2.828 0-1.138.308-2.146.924-3.024.634-.896 1.512-1.586 2.632-2.072 1.12-.504 2.398-.756 3.836-.756 1.325 0 2.548.187 3.668.56 1.12.374 2.072.924 2.856 1.652.373.318.56.7.56 1.148 0 .318-.103.598-.308.84-.187.243-.411.364-.672.364-.243 0-.551-.121-.924-.364-.859-.653-1.671-1.12-2.436-1.4-.747-.298-1.652-.448-2.716-.448-1.438 0-2.558.299-3.36.896-.803.579-1.204 1.391-1.204 2.436 0 .896.354 1.578 1.064 2.044.709.448 1.848.859 3.416 1.232 1.642.374 2.968.766 3.976 1.176 1.026.392 1.838.943 2.436 1.652.616.691.924 1.587.924 2.688 0 1.12-.318 2.119-.952 2.996-.616.859-1.494 1.531-2.632 2.016-1.12.467-2.418.7-3.892.7z" opacity=".7"/>
    <defs>
        <linearGradient id="paint0_linear" x1="293.31" x2="61.45" y1="347.452" y2="11.745" gradientUnits="userSpaceOnUse">
            <stop stop-color="#6D678E"/>
            <stop offset="1" stop-color="#F6B5CC"/>
        </linearGradient>
        <linearGradient id="paint1_linear" x1="285.886" x2="70.793" y1="347.452" y2="-3.611" gradientUnits="userSpaceOnUse">
            <stop stop-color="#6D678E"/>
            <stop offset="1" stop-color="#F6B5CC"/>
        </linearGradient>
        <clipPath id="clip0">
            <path fill="#fff" d="M0 0H143.377V202.827H0z" transform="translate(129.389 58.599)"/>
        </clipPath>
    </defs>
</svg>
