<svg xmlns="http://www.w3.org/2000/svg" width="40" height="40" fill="none" viewBox="0 0 40 40">
    <path fill="#383838" d="M26.25 20c0 1.658-.659 3.247-1.83 4.42-1.173 1.171-2.762 1.83-4.42 1.83s-3.247-.659-4.42-1.83c-1.171-1.173-1.83-2.762-1.83-4.42 0-.356.037-.704.102-1.042h-2.185v8.327c0 .58.468 1.048 1.048 1.048h14.573c.277 0 .543-.11.74-.307.195-.197.305-.463.305-.74v-8.328h-2.185c.064.338.102.686.102 1.042zM20 24.167c.547 0 1.09-.108 1.595-.318.505-.21.965-.517 1.352-.904.387-.387.694-.846.903-1.352.21-.506.317-1.048.317-1.595 0-.547-.108-1.09-.318-1.595-.21-.505-.517-.965-.904-1.352-.387-.387-.846-.694-1.352-.903-.506-.21-1.048-.317-1.595-.317-1.105 0-2.165.44-2.947 1.222-.781.781-1.22 1.842-1.22 2.947s.44 2.165 1.222 2.947c.781.781 1.842 1.22 2.947 1.22zm5-8.542h2.498c.166 0 .325-.066.443-.183.117-.117.183-.276.184-.442v-2.498c0-.166-.066-.326-.184-.443-.117-.118-.277-.184-.443-.184H25c-.166 0-.326.066-.443.184-.118.117-.184.277-.184.443V15c.002.344.283.625.627.625zM20 0C14.696 0 9.609 2.107 5.858 5.858 2.108 9.608 0 14.696 0 20s2.107 10.391 5.858 14.142C9.608 37.892 14.696 40 20 40c2.626 0 5.227-.517 7.654-1.522 2.426-1.006 4.631-2.479 6.488-4.336 1.857-1.857 3.33-4.062 4.336-6.488C39.483 25.227 40 22.626 40 20c0-2.626-.517-5.227-1.522-7.654-1.006-2.426-2.479-4.631-4.336-6.488C32.285 4 30.08 2.528 27.654 1.522 25.227.517 22.626 0 20 0zm10.417 28.102c0 1.273-1.042 2.315-2.315 2.315H11.898c-1.273 0-2.315-1.042-2.315-2.315V11.898c0-1.273 1.042-2.315 2.315-2.315h16.204c1.273 0 2.315 1.042 2.315 2.315v16.204z"/>
</svg>
