<svg xmlns="http://www.w3.org/2000/svg" width="1330" height="1038" fill="none" viewBox="0 0 1330 1038">
    <mask id="l20px3wina" width="1330" height="1038" x="0" y="0" maskUnits="userSpaceOnUse">
        <path fill="#C4C4C4" d="M0 0H1330V1038H0z"/>
    </mask>
    <g fill-rule="evenodd" clip-rule="evenodd" mask="url(#l20px3wina)">
        <path fill="url(#paint0_linear)" fill-opacity=".7" d="M220.571 751.582c-83.97-48.797-164.75-108.123-198.034-201.573-37.83-106.215-61.796-237.781 3.207-345.427C90.213 97.817 227.355 71.768 339.971 24.33c93.207-39.262 189.52-87.523 281.478-70.678C708.611-30.38 747.472 59.468 815.335 111.411c76.862 58.832 208.655 67.577 229.545 166.337 20.79 98.344-86.367 191.983-132.816 291.062-49.202 104.949-44.668 252.498-147.102 306.004-103.817 54.228-200.184-46.638-304.315-70.21-81.886-18.537-169.372-11.934-240.076-53.022z"/>
        <path fill="url(#paint1_linear)" d="M560.25 855.394c-89.523 59.934-188.063 110.995-297.871 95.291C137.572 932.835-5.959 887.299-82.5 763.47c-75.914-122.815-35.756-277.005-28.901-417.493 5.673-116.273 3.821-240.516 65.16-325.635C11.9-60.338 120.792-52.256 205.686-94.034c96.151-47.317 168.62-177.51 277.762-146.291C592.127-209.238 634.245-49.732 711.16 50.552c81.473 106.226 231.642 180.153 235.794 313.453 4.209 135.099-143.526 179.989-217.495 273.982-58.167 73.915-93.83 166.943-169.209 217.407z"/>
    </g>
    <defs>
        <linearGradient id="paint0_linear" x1="197.321" x2="842.181" y1="755.596" y2="61.504" gradientUnits="userSpaceOnUse">
            <stop stop-color="#6D678E"/>
            <stop offset="1" stop-color="#F6B5CC"/>
        </linearGradient>
        <linearGradient id="paint1_linear" x1="-118.739" x2="940.342" y1="-40.766" y2="733.903" gradientUnits="userSpaceOnUse">
            <stop stop-color="#6D678E"/>
            <stop offset="1" stop-color="#F6B5CC"/>
        </linearGradient>
    </defs>
</svg>
