<svg xmlns="http://www.w3.org/2000/svg" width="40" height="40" fill="none" viewBox="0 0 40 40">
    <path fill="#383838" d="M20 0C8.954 0 0 8.954 0 20s8.954 20 20 20 20-8.954 20-20S31.046 0 20 0zm8.135 16.383c.009.171.01.342.01.509 0 5.208-3.96 11.21-11.205 11.21-2.142.004-4.238-.611-6.038-1.77.306.037.62.051.94.051 1.845 0 3.543-.627 4.891-1.685-.821-.016-1.617-.288-2.277-.778-.659-.49-1.15-1.174-1.402-1.955.59.112 1.198.088 1.777-.07-.891-.18-1.693-.662-2.27-1.366-.575-.704-.89-1.586-.89-2.496v-.048c.531.294 1.14.473 1.785.494-.836-.556-1.427-1.41-1.654-2.39-.226-.977-.07-2.005.436-2.872.989 1.216 2.223 2.212 3.622 2.921 1.398.71 2.93 1.117 4.496 1.197-.199-.845-.113-1.732.244-2.524.357-.791.966-1.442 1.731-1.852.766-.41 1.645-.555 2.502-.414.857.142 1.643.562 2.236 1.197.881-.175 1.727-.498 2.5-.957-.294.913-.91 1.688-1.732 2.182.781-.094 1.544-.304 2.263-.623-.528.791-1.194 1.482-1.965 2.04z"/>
</svg>
