<svg xmlns="http://www.w3.org/2000/svg" width="157" height="247" fill="none" viewBox="0 0 157 247">
    <path fill="#3D3569" d="M4.02 236.925c-.447 0-.802-.122-1.063-.364-.243-.262-.364-.607-.364-1.036v-16.94c0-.43.121-.766.364-1.008.261-.262.616-.392 1.064-.392h5.488c3.192 0 5.665.858 7.42 2.576 1.755 1.717 2.632 4.144 2.632 7.28s-.878 5.572-2.632 7.308c-1.755 1.717-4.228 2.576-7.42 2.576H4.02zm5.32-2.408c4.854 0 7.28-2.492 7.28-7.476 0-4.966-2.426-7.448-7.28-7.448H5.478v14.924H9.34zm15.572 2.408c-.448 0-.803-.122-1.064-.364-.243-.262-.364-.607-.364-1.036v-16.94c0-.43.12-.766.363-1.008.262-.262.616-.392 1.064-.392h10.304c.43 0 .756.102.98.308.243.205.364.494.364.868 0 .373-.12.662-.363.868-.224.186-.551.28-.98.28H26.31v6.216h8.345c.429 0 .755.102.98.308.242.205.363.494.363.868 0 .373-.12.662-.364.868-.224.205-.55.308-.98.308h-8.344v6.524h8.904c.896 0 1.344.382 1.344 1.148 0 .373-.12.662-.363.868-.224.205-.551.308-.98.308H24.91zm21.201.224c-1.419 0-2.772-.196-4.06-.588-1.27-.392-2.287-.934-3.052-1.624-.355-.299-.532-.682-.532-1.148 0-.336.093-.616.28-.84.187-.243.41-.364.672-.364.261 0 .579.121.952.364 1.661 1.232 3.556 1.848 5.684 1.848 1.493 0 2.641-.28 3.444-.84.803-.56 1.204-1.363 1.204-2.408 0-.822-.373-1.438-1.12-1.848-.747-.411-1.941-.803-3.584-1.176-1.568-.336-2.856-.719-3.864-1.148-1.008-.43-1.801-1.008-2.38-1.736-.56-.747-.84-1.69-.84-2.828 0-1.139.308-2.147.924-3.024.635-.896 1.512-1.587 2.632-2.072 1.12-.504 2.399-.756 3.836-.756 1.325 0 2.548.186 3.668.56 1.12.373 2.072.924 2.856 1.652.373.317.56.7.56 1.148 0 .317-.103.597-.308.84-.187.242-.41.364-.672.364-.243 0-.55-.122-.924-.364-.859-.654-1.67-1.12-2.436-1.4-.747-.299-1.652-.448-2.716-.448-1.437 0-2.557.298-3.36.896-.803.578-1.204 1.39-1.204 2.436 0 .896.355 1.577 1.064 2.044.71.448 1.848.858 3.416 1.232 1.643.373 2.968.765 3.976 1.176 1.027.392 1.839.942 2.436 1.652.616.69.924 1.586.924 2.688 0 1.12-.317 2.118-.952 2.996-.616.858-1.493 1.53-2.632 2.016-1.12.466-2.417.7-3.892.7zm12.459-.084c-.43 0-.775-.131-1.036-.392-.262-.262-.392-.616-.392-1.064v-17.108c0-.43.13-.775.392-1.036.261-.28.606-.42 1.036-.42.448 0 .802.13 1.064.392.261.261.392.616.392 1.064v17.108c0 .448-.131.802-.392 1.064-.243.261-.598.392-1.064.392zm20.876-10.612c.355 0 .635.102.84.308.225.205.337.485.337.84v6.552c0 .634-.094 1.092-.28 1.372-.168.28-.514.504-1.037.672-.746.298-1.633.532-2.66.7-1.026.168-2.043.252-3.051.252-1.998 0-3.724-.402-5.18-1.204-1.457-.803-2.567-1.96-3.332-3.472-.766-1.512-1.148-3.323-1.148-5.432 0-2.072.382-3.864 1.148-5.376.765-1.512 1.857-2.67 3.276-3.472 1.437-.822 3.117-1.232 5.04-1.232 1.306 0 2.51.196 3.612.588 1.12.373 2.072.924 2.855 1.652.374.298.56.672.56 1.12 0 .336-.093.625-.28.868-.186.224-.41.336-.671.336-.169 0-.318-.028-.449-.084-.13-.056-.298-.15-.504-.28-.914-.672-1.745-1.139-2.492-1.4-.746-.28-1.605-.42-2.575-.42-2.128 0-3.752.662-4.872 1.988-1.12 1.306-1.68 3.21-1.68 5.712 0 2.557.569 4.498 1.707 5.824 1.158 1.306 2.847 1.96 5.069 1.96 1.493 0 2.93-.224 4.312-.672v-5.516h-3.668c-.374 0-.672-.094-.897-.28-.205-.206-.307-.476-.307-.812 0-.336.102-.598.308-.784.224-.206.522-.308.895-.308h5.124zm20.372-9.408c.41 0 .737.14.98.42.261.261.392.606.392 1.036v17.108c0 .429-.131.784-.392 1.064-.262.261-.598.392-1.008.392-.486 0-.86-.187-1.12-.56l-10.976-14.476v13.58c0 .429-.131.784-.392 1.064-.243.261-.57.392-.98.392-.411 0-.738-.131-.98-.392-.243-.262-.364-.616-.364-1.064v-17.108c0-.43.13-.775.392-1.036.26-.28.597-.42 1.008-.42.485 0 .858.186 1.12.56l10.976 14.504v-13.608c0-.43.12-.775.364-1.036.242-.28.569-.42.98-.42zm7.396 19.88c-.448 0-.802-.122-1.064-.364-.242-.262-.364-.607-.364-1.036v-16.94c0-.43.122-.766.364-1.008.262-.262.616-.392 1.064-.392h10.304c.43 0 .756.102.98.308.243.205.364.494.364.868 0 .373-.121.662-.364.868-.224.186-.55.28-.98.28h-8.904v6.216h8.344c.43 0 .756.102.98.308.243.205.364.494.364.868 0 .373-.121.662-.364.868-.224.205-.55.308-.98.308h-8.344v6.524h8.904c.896 0 1.344.382 1.344 1.148 0 .373-.121.662-.364.868-.224.205-.55.308-.98.308h-10.304zm30.351-1.792c.168.242.252.504.252.784 0 .336-.14.625-.42.868-.261.224-.569.336-.924.336-.523 0-.943-.234-1.26-.7l-3.752-5.824c-.429-.672-.887-1.139-1.372-1.4-.485-.28-1.12-.42-1.904-.42h-3.164v6.832c0 .448-.131.802-.392 1.064-.243.261-.588.392-1.036.392-.429 0-.775-.131-1.036-.392-.261-.262-.392-.616-.392-1.064v-17.024c0-.43.121-.766.364-1.008.261-.262.616-.392 1.064-.392h6.972c2.184 0 3.845.485 4.984 1.456 1.157.97 1.736 2.389 1.736 4.256 0 1.549-.439 2.809-1.316 3.78-.877.952-2.128 1.558-3.752 1.82.485.13.924.364 1.316.7.392.336.775.802 1.148 1.4l2.884 4.536zm-7.336-8.68c1.456 0 2.529-.28 3.22-.84.709-.579 1.064-1.466 1.064-2.66 0-1.195-.345-2.063-1.036-2.604-.691-.56-1.773-.84-3.248-.84h-5.236v6.944h5.236zm17.737 10.696c-1.418 0-2.772-.196-4.06-.588-1.269-.392-2.286-.934-3.052-1.624-.354-.299-.532-.682-.532-1.148 0-.336.094-.616.28-.84.187-.243.411-.364.672-.364.262 0 .579.121.952.364 1.662 1.232 3.556 1.848 5.684 1.848 1.494 0 2.642-.28 3.444-.84.803-.56 1.204-1.363 1.204-2.408 0-.822-.373-1.438-1.12-1.848-.746-.411-1.941-.803-3.584-1.176-1.568-.336-2.856-.719-3.864-1.148-1.008-.43-1.801-1.008-2.38-1.736-.56-.747-.84-1.69-.84-2.828 0-1.139.308-2.147.924-3.024.635-.896 1.512-1.587 2.632-2.072 1.12-.504 2.399-.756 3.836-.756 1.326 0 2.548.186 3.668.56 1.12.373 2.072.924 2.856 1.652.374.317.56.7.56 1.148 0 .317-.102.597-.308.84-.186.242-.41.364-.672.364-.242 0-.55-.122-.924-.364-.858-.654-1.67-1.12-2.436-1.4-.746-.299-1.652-.448-2.716-.448-1.437 0-2.557.298-3.36.896-.802.578-1.204 1.39-1.204 2.436 0 .896.355 1.577 1.064 2.044.71.448 1.848.858 3.416 1.232 1.643.373 2.968.765 3.976 1.176 1.027.392 1.839.942 2.436 1.652.616.69.924 1.586.924 2.688 0 1.12-.317 2.118-.952 2.996-.616.858-1.493 1.53-2.632 2.016-1.12.466-2.417.7-3.892.7z" opacity=".8"/>
    <g clip-path="url(#clip0)">
        <path fill="#655D8E" d="M129.999 99.754c0 4.164-.066 8.177.013 12.197.205 10.414-.333 20.75-2.282 31.026-1.737 9.153-6.899 15.428-14.973 19.665-6.373 3.347-13.278 4.595-20.305 5.317-1.846.188-2.76.782-3.57 2.467-3.462 7.214-8.867 12.312-16.565 14.937-3.922 1.34-7.268.667-10.434-1.837-4.466-3.534-7.57-8.068-9.677-13.294-.623-1.54-1.422-2.031-3.062-2.225-7.487-.897-14.949-1.958-22.405-3.061-4.576-.673-7.136-3.431-8.461-7.893-3.432-11.524-2.82-23.054-1.09-34.754 1.429-9.663 2.167-19.436 3.16-29.16.048-.478-.224-1.175-.587-1.49-4.933-4.268-5.725-10.203-6.306-16.12-.225-2.26.23-4.637.69-6.898.992-4.886 3.89-7.875 9.562-8.112-1.023-2.285-1.846-4.17-2.718-6.038-3.37-7.238-6.1-14.712-3.903-22.75 1.113-4.074 3.183-7.99 5.404-11.616 1.707-2.788 4.146-5.22 6.585-7.45 5.568-5.098 12.322-5.48 19.252-3.934 1.791.4 3.328 1.952 5.035 3.006C57.61 3.67 64.933.541 73.818.098c19.724-.982 36.216 5.644 50.42 19.593 11.65 11.445 14.749 24.806 12.413 40.174-.279 1.824-1.295 3.54-2.058 5.54.896.23 2.094.328 3.068.837 1.374.721 3.178 1.467 3.765 2.698 2.971 6.213 4.375 12.864 2.802 19.665-1.592 6.911-6.27 10.397-14.229 11.149zM53.665 24.425c.865 6.311-2.185 10.076-5.714 13.507-1.724 1.673-3.673 3.225-5.761 4.389-6.446 3.583-10.065 8.875-11.136 16.216-2.112 14.446-4.606 28.838-6.682 43.29-1.12 7.778-1.622 15.646-2.541 23.46-1.21 10.306-1.538 20.496 2.197 30.469.665 1.782 1.464 2.649 3.274 2.922 4.176.636 8.321 1.497 12.503 2.061 3.202.43 6.44.545 9.563.794-.46-4.535-1.017-8.53-1.241-12.543-.448-8.123 3.002-13.355 11.051-14.258 8.237-.927 16.716-.952 24.965-.121 8.72.879 10.3 3.31 10.186 12.161-.067 4.958-.787 9.905-1.271 15.555 5.06-1.406 10.27-2.467 15.178-4.322 7.329-2.759 12.431-8.014 13.805-15.932 1.392-8.02 2.554-16.119 3.171-24.236.902-11.87 1.205-23.788 1.798-35.682.187-3.843.478-7.68.72-11.518-.266-.133-.539-.26-.805-.394-1.386 1.23-2.711 2.54-4.176 3.668-1.198.921-2.602 2.297-3.831 2.212-.92-.06-2.136-1.994-2.505-3.291-2.99-10.706-10.047-17.768-19.894-22.151-7.056-3.14-14.3-5.887-21.503-8.7-8.709-3.394-16.286-8.16-21.352-17.556zm76.522 45.333v24.285c5.229-.242 8.836-2.655 9.508-7.402.533-3.789.181-7.82-.448-11.633-.877-5.359-3.201-6.541-9.06-5.25zm-10.313-9.881c.248-.067.503-.14.751-.206-.218-.861-.182-1.922-.684-2.552-6.379-7.972-13.018-15.513-23.161-19.096-10.852-3.831-21.97-7.238-31.187-14.64-.242-.194-.696-.121-1.531-.249.52.83.702 1.407 1.095 1.692 8.02 5.88 16.147 11.433 25.922 14.282 7.65 2.23 14.845 5.65 20.407 11.736 2.766 3.037 5.586 6.026 8.388 9.033zM21.655 85.18c1.029-7.402 1.955-14.088 2.893-20.848-4.34.219-5.677 1.298-6.379 4.984-1.053 5.498.436 10.457 3.486 15.864zm21.249-69.769c-.279-.133-.557-.273-.841-.406-3.172 2.073-6.307 4.207-9.526 6.207-3.983 2.474-6.385 6.069-7.462 10.524-.551 2.268-.666 4.644-.981 6.966.309.042.617.079.926.121.145-.624.351-1.243.43-1.873.805-6.378 3.625-11.367 9.502-14.44 2.118-1.11 4.14-2.486 5.997-3.99.896-.733 1.32-2.054 1.955-3.109z"/>
        <path fill="#fff" d="M53.663 24.424c5.072 9.403 12.643 14.162 21.352 17.562 7.202 2.813 14.44 5.553 21.503 8.7 9.853 4.382 16.904 11.445 19.893 22.15.364 1.304 1.58 3.232 2.506 3.292 1.229.08 2.633-1.29 3.831-2.212 1.465-1.128 2.79-2.437 4.176-3.668.266.133.539.26.805.394-.242 3.837-.527 7.675-.72 11.518-.593 11.894-.896 23.812-1.798 35.682-.617 8.117-1.779 16.21-3.171 24.236-1.374 7.917-6.476 13.167-13.805 15.932-4.914 1.849-10.125 2.909-15.179 4.322.485-5.656 1.205-10.603 1.271-15.556.115-8.844-1.464-11.275-10.185-12.16-8.25-.831-16.728-.806-24.965.121-8.05.903-11.5 6.135-11.051 14.258.224 4.013.78 8.008 1.24 12.543-3.122-.249-6.366-.364-9.562-.794-4.182-.564-8.328-1.425-12.504-2.062-1.809-.272-2.602-1.139-3.274-2.921-3.74-9.973-3.407-20.163-2.197-30.469.92-7.814 1.423-15.676 2.542-23.46 2.076-14.452 4.57-28.844 6.682-43.29 1.071-7.341 4.69-12.634 11.136-16.216 2.094-1.164 4.042-2.71 5.761-4.39 3.529-3.436 6.579-7.201 5.713-13.512zM85.056 69.54c2.771.376 5.646.709 8.503 1.17 4.067.66 8.097 1.564 12.183 2.018 1.016.116 2.172-1.097 3.268-1.697-.648-.97-1.18-2.68-1.955-2.8-7.735-1.207-15.512-2.159-23.276-3.165-2.579-.334-3.807 1.018-3.831 3.461-.133 11.3-.212 22.6-.303 33.894-.018 1.994 0 3.989 0 6.292-2.445-.254-4.63-.424-6.796-.727-4.479-.631-5.332.127-5.054 3.807-3.807 2.194-7.856 3.674-10.706 6.401-3.208 3.062-6.385 5.02-10.797 5.093-.835.012-2.197.667-2.366 1.285-.236.873.096 2.425.756 2.91 1.664 1.224 3.559 2.321 5.52 2.922 5.265 1.612 10.343.357 15.293-1.595 4.05-1.594 8.134-1.776 11.923.528 5.544 3.364 11.644 3.976 17.78 3.394 3.705-.351 7.318-1.885 10.889-3.122.69-.242 1.482-1.624 1.367-2.352-.103-.666-1.307-1.261-2.13-1.679-.599-.309-1.362-.345-2.064-.412-3.637-.37-6.681-1.679-9.175-4.577-1.32-1.528-3.353-2.522-5.21-3.474-2.01-1.024-4.183-1.721-6.416-2.606 3.353-2.498 3.529-2.637 3.414-6.687-.176-5.85-.66-11.688-.781-17.538-.145-6.844-.036-13.682-.036-20.744zm-22.617-.219c.145.292.29.583.436.88.611-.734 1.537-1.4 1.706-2.225.091-.443-1.07-1.582-1.76-1.673-7.929-1.08-15.87-2.068-23.822-2.959-1.749-.194-3.68.212-3.819 2.443-.151 2.334 1.907 2.704 3.565 2.777 7.892.333 15.796.521 23.694.757zm-15.215 9.615c.2 3.42 1.822 4.692 3.764 4.407 1.078-.157 2.536-2.006 2.694-3.237.278-2.152-1.368-3.734-3.505-3.437-1.228.176-2.275 1.71-2.953 2.267zm52.296 5.42c1.259-2.116 2.651-3.413 2.463-4.42-.193-1.06-1.834-2.425-2.965-2.552-.8-.09-2.615 1.764-2.518 2.583.145 1.26 1.537 2.376 3.02 4.389zM130.186 69.757c5.858-1.285 8.182-.103 9.06 5.25.629 3.813.98 7.844.448 11.633-.672 4.747-4.285 7.16-9.508 7.402V69.757zM119.873 59.876c-2.802-3.013-5.622-6.002-8.394-9.033-5.562-6.086-12.758-9.505-20.407-11.736-9.769-2.85-17.903-8.402-25.922-14.282-.393-.285-.569-.867-1.095-1.692.835.122 1.289.055 1.531.249 9.211 7.402 20.335 10.809 31.186 14.64 10.144 3.583 16.777 11.118 23.162 19.096.502.63.472 1.691.684 2.552-.248.066-.497.14-.745.206zM21.654 85.179c-3.05-5.407-4.539-10.366-3.486-15.87.702-3.68 2.04-4.76 6.379-4.984-.938 6.766-1.864 13.452-2.893 20.854zM42.903 15.41c-.636 1.055-1.06 2.376-1.955 3.104-1.858 1.51-3.88 2.88-5.998 3.989-5.876 3.073-8.696 8.062-9.501 14.44-.079.63-.285 1.248-.43 1.873-.309-.043-.617-.08-.926-.122.315-2.327.43-4.698.98-6.965 1.084-4.456 3.48-8.05 7.463-10.524 3.22-2 6.354-4.134 9.526-6.207.278.139.563.278.84.412z"/>
        <path fill="#655D8E" d="M85.055 69.538c0 7.069-.108 13.901.03 20.733.122 5.85.606 11.688.782 17.538.12 4.055-.061 4.189-3.414 6.686 2.233.891 4.406 1.583 6.415 2.607 1.858.952 3.898 1.946 5.211 3.474 2.494 2.897 5.538 4.207 9.175 4.577.702.072 1.465.103 2.064.412.823.424 2.027 1.018 2.13 1.679.115.721-.678 2.11-1.368 2.352-3.57 1.237-7.183 2.777-10.887 3.122-6.137.582-12.237-.03-17.781-3.395-3.789-2.297-7.868-2.121-11.923-.527-4.95 1.952-10.028 3.207-15.294 1.594-1.966-.6-3.855-1.697-5.519-2.922-.66-.485-.992-2.037-.757-2.91.164-.618 1.526-1.273 2.367-1.285 4.412-.072 7.595-2.031 10.797-5.092 2.856-2.728 6.9-4.207 10.706-6.402-.279-3.679.575-4.437 5.053-3.807 2.167.304 4.346.467 6.797.728 0-2.304-.012-4.298 0-6.293.09-11.3.175-22.6.303-33.893.03-2.443 1.258-3.795 3.83-3.462 7.765 1 15.542 1.959 23.277 3.165.781.121 1.307 1.825 1.955 2.8-1.096.6-2.258 1.807-3.268 1.698-4.086-.455-8.122-1.364-12.183-2.019-2.85-.454-5.726-.782-8.498-1.157zM62.439 69.32c-7.898-.236-15.802-.418-23.7-.757-1.658-.073-3.716-.443-3.565-2.777.14-2.23 2.076-2.643 3.82-2.443 7.952.885 15.892 1.873 23.82 2.958.696.097 1.852 1.231 1.761 1.674-.163.824-1.095 1.49-1.706 2.224-.14-.297-.285-.588-.43-.879zM47.224 78.935c.678-.558 1.725-2.091 2.96-2.26 2.136-.298 3.782 1.284 3.504 3.436-.164 1.23-1.616 3.08-2.693 3.237-1.95.28-3.571-.994-3.77-4.413z"/>
        <path fill="#655D8E" d="M99.52 84.355c-1.483-2.02-2.874-3.135-3.02-4.39-.097-.818 1.725-2.673 2.518-2.582 1.132.127 2.772 1.491 2.965 2.552.188 1.007-1.204 2.31-2.463 4.42z"/>
    </g>
    <defs>
        <clipPath id="clip0">
            <path fill="#fff" d="M0 0H131.488V186.041H0z" transform="translate(13.393)"/>
        </clipPath>
    </defs>
</svg>
